<?xml version="1.0" encoding="utf-8"?>
<!DOCTYPE svg PUBLIC "-//W3C//DTD SVG 1.1//EN" "http://www.w3.org/Graphics/SVG/1.1/DTD/svg11.dtd">
<svg version="1.1" id="Layer_1" xmlns="http://www.w3.org/2000/svg" xmlns:xlink="http://www.w3.org/1999/xlink" x="0px" y="0px"
width="2257px" height="2257px" viewBox="0 0 2257 2257" enable-background="new 0 0 2257 2257" xml:space="preserve">
<rect x="0" y="0" width="2257" height="2257" fill="rgb(255,255,255)" /><g transform="translate(122,122)"><g><defs>
    <linearGradient gradientTransform="rotate(90)" id="grad">
    <stop offset="5%" stop-color="rgb(215,0,0)" />
    <stop offset="95%" stop-color="rgb(240,72,112)" />
    </linearGradient>
<mask id="gmask"><g>
<g transform="translate(488,0) scale(0.61,0.61)"><g transform="" style="fill: rgb(255, 255, 255);">
<g>
	<path d="M95,64.062c0,8.556-3.019,15.851-9.053,21.885S72.618,95,64.062,95H35.938c-8.554,0-15.85-3.019-21.884-9.053
		S5,72.618,5,64.062V35.938c0-8.554,3.018-15.85,9.053-21.884S27.383,5,35.938,5h28.125c8.556,0,15.851,3.018,21.885,9.053
		S95,27.383,95,35.938V64.062z"/>
</g>
</g></g><g transform="translate(610,0) scale(0.61,0.61)"><g transform="" style="fill: rgb(255, 255, 255);">
<g>
	<path d="M100,34.375V0H34.375C24.87,0,16.764,3.353,10.059,10.059S0,24.87,0,34.375V100h100V34.375z"/>
</g>
</g></g><g transform="translate(671,0) scale(0.61,0.61)"><g transform="" style="fill: rgb(255, 255, 255);">
<rect width="100" height="100"/>
</g></g><g transform="translate(732,0) scale(0.61,0.61)"><g transform="" style="fill: rgb(255, 255, 255);">
<rect width="100" height="100"/>
</g></g><g transform="translate(793,0) scale(0.61,0.61)"><g transform="" style="fill: rgb(255, 255, 255);">
<rect width="100" height="100"/>
</g></g><g transform="translate(854,0) scale(0.61,0.61)"><g transform="" style="fill: rgb(255, 255, 255);">
<rect width="100" height="100"/>
</g></g><g transform="translate(915,0) scale(0.61,0.61)"><g transform="" style="fill: rgb(255, 255, 255);">
<rect width="100" height="100"/>
</g></g><g transform="translate(976,0) scale(0.61,0.61)"><g transform="" style="fill: rgb(255, 255, 255);">
<g>
	<path d="M100,0H0v100h100L71.875,50L100,0z"/>
</g>
</g></g><g transform="translate(1098,0) scale(0.61,0.61)"><g transform="" style="fill: rgb(255, 255, 255);">
<g>
	<path d="M0,0v100h100V0L50,28.125L0,0z"/>
</g>
</g></g><g transform="translate(1220,0) scale(0.61,0.61)"><g transform="" style="fill: rgb(255, 255, 255);">
<g>
	<path d="M0,100h100V0H0l28.125,50L0,100z"/>
</g>
</g></g><g transform="translate(1281,0) scale(0.61,0.61)"><g transform="" style="fill: rgb(255, 255, 255);">
<g>
	<path d="M100,34.375c0-9.505-3.354-17.611-10.059-24.316S75.131,0,65.625,0H0v100h100V34.375z"/>
</g>
</g></g><g transform="translate(1403,0) scale(0.61,0.61)"><g transform="" style="fill: rgb(255, 255, 255);">
<g>
	<path d="M95,64.062c0,8.556-3.019,15.851-9.053,21.885S72.618,95,64.062,95H35.938c-8.554,0-15.85-3.019-21.884-9.053
		S5,72.618,5,64.062V35.938c0-8.554,3.018-15.85,9.053-21.884S27.383,5,35.938,5h28.125c8.556,0,15.851,3.018,21.885,9.053
		S95,27.383,95,35.938V64.062z"/>
</g>
</g></g><g transform="translate(610,61) scale(0.61,0.61)"><g transform="" style="fill: rgb(255, 255, 255);">
<g>
	<path d="M100,0H0v65.625c0,9.506,3.353,17.611,10.059,24.316S24.87,100,34.375,100H100V0z"/>
</g>
</g></g><g transform="translate(671,61) scale(0.61,0.61)"><g transform="" style="fill: rgb(255, 255, 255);">
<rect width="100" height="100"/>
</g></g><g transform="translate(732,61) scale(0.61,0.61)"><g transform="" style="fill: rgb(255, 255, 255);">
<rect width="100" height="100"/>
</g></g><g transform="translate(793,61) scale(0.61,0.61)"><g transform="" style="fill: rgb(255, 255, 255);">
<rect width="100" height="100"/>
</g></g><g transform="translate(854,61) scale(0.61,0.61)"><g transform="" style="fill: rgb(255, 255, 255);">
<rect width="100" height="100"/>
</g></g><g transform="translate(1098,61) scale(0.61,0.61)"><g transform="" style="fill: rgb(255, 255, 255);">
<rect width="100" height="100"/>
</g></g><g transform="translate(1159,61) scale(0.61,0.61)"><g transform="" style="fill: rgb(255, 255, 255);">
<g>
	<path d="M100,0H0v100h100L71.875,50L100,0z"/>
</g>
</g></g><g transform="translate(1281,61) scale(0.61,0.61)"><g transform="" style="fill: rgb(255, 255, 255);">
<rect width="100" height="100"/>
</g></g><g transform="translate(1342,61) scale(0.61,0.61)"><g transform="" style="fill: rgb(255, 255, 255);">
<g>
	<path d="M100,0H0v100h100L71.875,50L100,0z"/>
</g>
</g></g><g transform="translate(549,122) scale(0.61,0.61)"><g transform="" style="fill: rgb(255, 255, 255);">
<g>
	<path d="M95,64.062c0,8.556-3.019,15.851-9.053,21.885S72.618,95,64.062,95H35.938c-8.554,0-15.85-3.019-21.884-9.053
		S5,72.618,5,64.062V35.938c0-8.554,3.018-15.85,9.053-21.884S27.383,5,35.938,5h28.125c8.556,0,15.851,3.018,21.885,9.053
		S95,27.383,95,35.938V64.062z"/>
</g>
</g></g><g transform="translate(671,122) scale(0.61,0.61)"><g transform="" style="fill: rgb(255, 255, 255);">
<rect width="100" height="100"/>
</g></g><g transform="translate(854,122) scale(0.61,0.61)"><g transform="" style="fill: rgb(255, 255, 255);">
<g>
	<path d="M100,0H0v65.625c0,9.506,3.353,17.611,10.059,24.316S24.87,100,34.375,100H100V0z"/>
</g>
</g></g><g transform="translate(915,122) scale(0.61,0.61)"><g transform="" style="fill: rgb(255, 255, 255);">
<g>
	<path d="M100,34.375c0-9.505-3.354-17.611-10.059-24.316S75.131,0,65.625,0H0v100h100V34.375z"/>
</g>
</g></g><g transform="translate(1037,122) scale(0.61,0.61)"><g transform="" style="fill: rgb(255, 255, 255);">
<g>
	<path d="M100,34.375V0H34.375C24.87,0,16.764,3.353,10.059,10.059S0,24.87,0,34.375V100h100V34.375z"/>
</g>
</g></g><g transform="translate(1098,122) scale(0.61,0.61)"><g transform="" style="fill: rgb(255, 255, 255);">
<g>
	<path d="M100,0H0v100h65.625c9.506,0,17.611-3.354,24.316-10.059S100,75.131,100,65.625V0z"/>
</g>
</g></g><g transform="translate(1220,122) scale(0.61,0.61)"><g transform="" style="fill: rgb(255, 255, 255);">
<g>
	<path d="M0,100h100V0H0l28.125,50L0,100z"/>
</g>
</g></g><g transform="translate(1281,122) scale(0.61,0.61)"><g transform="" style="fill: rgb(255, 255, 255);">
<rect width="100" height="100"/>
</g></g><g transform="translate(1403,122) scale(0.61,0.61)"><g transform="" style="fill: rgb(255, 255, 255);">
<g>
	<path d="M95,64.062c0,8.556-3.019,15.851-9.053,21.885S72.618,95,64.062,95H35.938c-8.554,0-15.85-3.019-21.884-9.053
		S5,72.618,5,64.062V35.938c0-8.554,3.018-15.85,9.053-21.884S27.383,5,35.938,5h28.125c8.556,0,15.851,3.018,21.885,9.053
		S95,27.383,95,35.938V64.062z"/>
</g>
</g></g><g transform="translate(488,183) scale(0.61,0.61)"><g transform="" style="fill: rgb(255, 255, 255);">
<g>
	<path d="M0,0v100h100V0L50,28.125L0,0z"/>
</g>
</g></g><g transform="translate(610,183) scale(0.61,0.61)"><g transform="" style="fill: rgb(255, 255, 255);">
<g>
	<path d="M0,100h100V0H0l28.125,50L0,100z"/>
</g>
</g></g><g transform="translate(671,183) scale(0.61,0.61)"><g transform="" style="fill: rgb(255, 255, 255);">
<g>
	<path d="M100,0H0v100h65.625c9.506,0,17.611-3.354,24.316-10.059S100,75.131,100,65.625V0z"/>
</g>
</g></g><g transform="translate(915,183) scale(0.61,0.61)"><g transform="" style="fill: rgb(255, 255, 255);">
<g>
	<path d="M100,0H0v65.625c0,9.506,3.353,17.611,10.059,24.316S24.87,100,34.375,100H100V0z"/>
</g>
</g></g><g transform="translate(976,183) scale(0.61,0.61)"><g transform="" style="fill: rgb(255, 255, 255);">
<rect width="100" height="100"/>
</g></g><g transform="translate(1037,183) scale(0.61,0.61)"><g transform="" style="fill: rgb(255, 255, 255);">
<rect width="100" height="100"/>
</g></g><g transform="translate(1159,183) scale(0.61,0.61)"><g transform="" style="fill: rgb(255, 255, 255);">
<g>
	<path d="M0,0v100h100V0L50,28.125L0,0z"/>
</g>
</g></g><g transform="translate(1281,183) scale(0.61,0.61)"><g transform="" style="fill: rgb(255, 255, 255);">
<rect width="100" height="100"/>
</g></g><g transform="translate(1342,183) scale(0.61,0.61)"><g transform="" style="fill: rgb(255, 255, 255);">
<g>
	<path d="M100,0H0v100h100L71.875,50L100,0z"/>
</g>
</g></g><g transform="translate(488,244) scale(0.61,0.61)"><g transform="" style="fill: rgb(255, 255, 255);">
<rect width="100" height="100"/>
</g></g><g transform="translate(549,244) scale(0.61,0.61)"><g transform="" style="fill: rgb(255, 255, 255);">
<g>
	<path d="M100,34.375c0-9.505-3.354-17.611-10.059-24.316S75.131,0,65.625,0H0v100h100V34.375z"/>
</g>
</g></g><g transform="translate(793,244) scale(0.61,0.61)"><g transform="" style="fill: rgb(255, 255, 255);">
<g>
	<path d="M0,0v100h100V0L50,28.125L0,0z"/>
</g>
</g></g><g transform="translate(976,244) scale(0.61,0.61)"><g transform="" style="fill: rgb(255, 255, 255);">
<g>
	<path d="M100,0H0v65.625c0,9.506,3.353,17.611,10.059,24.316S24.87,100,34.375,100H100V0z"/>
</g>
</g></g><g transform="translate(1037,244) scale(0.61,0.61)"><g transform="" style="fill: rgb(255, 255, 255);">
<rect width="100" height="100"/>
</g></g><g transform="translate(1159,244) scale(0.61,0.61)"><g transform="" style="fill: rgb(255, 255, 255);">
<g>
	<path d="M100,100V0H0v100l50-28.125L100,100z"/>
</g>
</g></g><g transform="translate(1281,244) scale(0.61,0.61)"><g transform="" style="fill: rgb(255, 255, 255);">
<rect width="100" height="100"/>
</g></g><g transform="translate(1403,244) scale(0.61,0.61)"><g transform="" style="fill: rgb(255, 255, 255);">
<g>
	<path d="M0,100h100V0H0l28.125,50L0,100z"/>
</g>
</g></g><g transform="translate(1464,244) scale(0.61,0.61)"><g transform="" style="fill: rgb(255, 255, 255);">
<g>
	<path d="M100,0H0v100h100L71.875,50L100,0z"/>
</g>
</g></g><g transform="translate(488,305) scale(0.61,0.61)"><g transform="" style="fill: rgb(255, 255, 255);">
<rect width="100" height="100"/>
</g></g><g transform="translate(549,305) scale(0.61,0.61)"><g transform="" style="fill: rgb(255, 255, 255);">
<g>
	<path d="M100,0H0v100h65.625c9.506,0,17.611-3.354,24.316-10.059S100,75.131,100,65.625V0z"/>
</g>
</g></g><g transform="translate(732,305) scale(0.61,0.61)"><g transform="" style="fill: rgb(255, 255, 255);">
<g>
	<path d="M100,34.375V0H34.375C24.87,0,16.764,3.353,10.059,10.059S0,24.87,0,34.375V100h100V34.375z"/>
</g>
</g></g><g transform="translate(793,305) scale(0.61,0.61)"><g transform="" style="fill: rgb(255, 255, 255);">
<g>
	<path d="M100,0H0v100h65.625c9.506,0,17.611-3.354,24.316-10.059S100,75.131,100,65.625V0z"/>
</g>
</g></g><g transform="translate(915,305) scale(0.61,0.61)"><g transform="" style="fill: rgb(255, 255, 255);">
<g>
	<path d="M95,64.062c0,8.556-3.019,15.851-9.053,21.885S72.618,95,64.062,95H35.938c-8.554,0-15.85-3.019-21.884-9.053
		S5,72.618,5,64.062V35.938c0-8.554,3.018-15.85,9.053-21.884S27.383,5,35.938,5h28.125c8.556,0,15.851,3.018,21.885,9.053
		S95,27.383,95,35.938V64.062z"/>
</g>
</g></g><g transform="translate(1037,305) scale(0.61,0.61)"><g transform="" style="fill: rgb(255, 255, 255);">
<g>
	<path d="M100,100V0H0v100l50-28.125L100,100z"/>
</g>
</g></g><g transform="translate(1220,305) scale(0.61,0.61)"><g transform="" style="fill: rgb(255, 255, 255);">
<g>
	<path d="M100,34.375V0H34.375C24.87,0,16.764,3.353,10.059,10.059S0,24.87,0,34.375V100h100V34.375z"/>
</g>
</g></g><g transform="translate(1281,305) scale(0.61,0.61)"><g transform="" style="fill: rgb(255, 255, 255);">
<rect width="100" height="100"/>
</g></g><g transform="translate(1342,305) scale(0.61,0.61)"><g transform="" style="fill: rgb(255, 255, 255);">
<g>
	<path d="M100,34.375c0-9.505-3.354-17.611-10.059-24.316S75.131,0,65.625,0H0v100h100V34.375z"/>
</g>
</g></g><g transform="translate(488,366) scale(0.61,0.61)"><g transform="" style="fill: rgb(255, 255, 255);">
<rect width="100" height="100"/>
</g></g><g transform="translate(610,366) scale(0.61,0.61)"><g transform="" style="fill: rgb(255, 255, 255);">
<g>
	<path d="M95,64.062c0,8.556-3.019,15.851-9.053,21.885S72.618,95,64.062,95H35.938c-8.554,0-15.85-3.019-21.884-9.053
		S5,72.618,5,64.062V35.938c0-8.554,3.018-15.85,9.053-21.884S27.383,5,35.938,5h28.125c8.556,0,15.851,3.018,21.885,9.053
		S95,27.383,95,35.938V64.062z"/>
</g>
</g></g><g transform="translate(732,366) scale(0.61,0.61)"><g transform="" style="fill: rgb(255, 255, 255);">
<g>
	<path d="M100,100V0H0v100l50-28.125L100,100z"/>
</g>
</g></g><g transform="translate(854,366) scale(0.61,0.61)"><g transform="" style="fill: rgb(255, 255, 255);">
<g>
	<path d="M0,0v100h100V0L50,28.125L0,0z"/>
</g>
</g></g><g transform="translate(976,366) scale(0.61,0.61)"><g transform="" style="fill: rgb(255, 255, 255);">
<g>
	<path d="M95,64.062c0,8.556-3.019,15.851-9.053,21.885S72.618,95,64.062,95H35.938c-8.554,0-15.85-3.019-21.884-9.053
		S5,72.618,5,64.062V35.938c0-8.554,3.018-15.85,9.053-21.884S27.383,5,35.938,5h28.125c8.556,0,15.851,3.018,21.885,9.053
		S95,27.383,95,35.938V64.062z"/>
</g>
</g></g><g transform="translate(1098,366) scale(0.61,0.61)"><g transform="" style="fill: rgb(255, 255, 255);">
<g>
	<path d="M95,64.062c0,8.556-3.019,15.851-9.053,21.885S72.618,95,64.062,95H35.938c-8.554,0-15.85-3.019-21.884-9.053
		S5,72.618,5,64.062V35.938c0-8.554,3.018-15.85,9.053-21.884S27.383,5,35.938,5h28.125c8.556,0,15.851,3.018,21.885,9.053
		S95,27.383,95,35.938V64.062z"/>
</g>
</g></g><g transform="translate(1220,366) scale(0.61,0.61)"><g transform="" style="fill: rgb(255, 255, 255);">
<rect width="100" height="100"/>
</g></g><g transform="translate(1342,366) scale(0.61,0.61)"><g transform="" style="fill: rgb(255, 255, 255);">
<rect width="100" height="100"/>
</g></g><g transform="translate(1464,366) scale(0.61,0.61)"><g transform="" style="fill: rgb(255, 255, 255);">
<g>
	<path d="M95,64.062c0,8.556-3.019,15.851-9.053,21.885S72.618,95,64.062,95H35.938c-8.554,0-15.85-3.019-21.884-9.053
		S5,72.618,5,64.062V35.938c0-8.554,3.018-15.85,9.053-21.884S27.383,5,35.938,5h28.125c8.556,0,15.851,3.018,21.885,9.053
		S95,27.383,95,35.938V64.062z"/>
</g>
</g></g><g transform="translate(488,427) scale(0.61,0.61)"><g transform="" style="fill: rgb(255, 255, 255);">
<rect width="100" height="100"/>
</g></g><g transform="translate(549,427) scale(0.61,0.61)"><g transform="" style="fill: rgb(255, 255, 255);">
<g>
	<path d="M100,0H0v100h100L71.875,50L100,0z"/>
</g>
</g></g><g transform="translate(854,427) scale(0.61,0.61)"><g transform="" style="fill: rgb(255, 255, 255);">
<g>
	<path d="M100,100V0H0v100l50-28.125L100,100z"/>
</g>
</g></g><g transform="translate(1037,427) scale(0.61,0.61)"><g transform="" style="fill: rgb(255, 255, 255);">
<g>
	<path d="M0,0v100h100V0L50,28.125L0,0z"/>
</g>
</g></g><g transform="translate(1159,427) scale(0.61,0.61)"><g transform="" style="fill: rgb(255, 255, 255);">
<g>
	<path d="M0,100h100V0H0l28.125,50L0,100z"/>
</g>
</g></g><g transform="translate(1220,427) scale(0.61,0.61)"><g transform="" style="fill: rgb(255, 255, 255);">
<rect width="100" height="100"/>
</g></g><g transform="translate(1281,427) scale(0.61,0.61)"><g transform="" style="fill: rgb(255, 255, 255);">
<rect width="100" height="100"/>
</g></g><g transform="translate(1342,427) scale(0.61,0.61)"><g transform="" style="fill: rgb(255, 255, 255);">
<rect width="100" height="100"/>
</g></g><g transform="translate(1403,427) scale(0.61,0.61)"><g transform="" style="fill: rgb(255, 255, 255);">
<g>
	<path d="M100,34.375c0-9.505-3.354-17.611-10.059-24.316S75.131,0,65.625,0H0v100h100V34.375z"/>
</g>
</g></g><g transform="translate(0,488) scale(0.61,0.61)"><g transform="" style="fill: rgb(255, 255, 255);">
<g>
	<path d="M0,0v100h100V0L50,28.125L0,0z"/>
</g>
</g></g><g transform="translate(244,488) scale(0.61,0.61)"><g transform="" style="fill: rgb(255, 255, 255);">
<g>
	<path d="M0,0v100h100V0L50,28.125L0,0z"/>
</g>
</g></g><g transform="translate(366,488) scale(0.61,0.61)"><g transform="" style="fill: rgb(255, 255, 255);">
<g>
	<path d="M0,100h100V0H0l28.125,50L0,100z"/>
</g>
</g></g><g transform="translate(427,488) scale(0.61,0.61)"><g transform="" style="fill: rgb(255, 255, 255);">
<rect width="100" height="100"/>
</g></g><g transform="translate(488,488) scale(0.61,0.61)"><g transform="" style="fill: rgb(255, 255, 255);">
<rect width="100" height="100"/>
</g></g><g transform="translate(671,488) scale(0.61,0.61)"><g transform="" style="fill: rgb(255, 255, 255);">
<g>
	<path d="M0,100h100V0H0l28.125,50L0,100z"/>
</g>
</g></g><g transform="translate(732,488) scale(0.61,0.61)"><g transform="" style="fill: rgb(255, 255, 255);">
<g>
	<path d="M100,34.375c0-9.505-3.354-17.611-10.059-24.316S75.131,0,65.625,0H0v100h100V34.375z"/>
</g>
</g></g><g transform="translate(915,488) scale(0.61,0.61)"><g transform="" style="fill: rgb(255, 255, 255);">
<g>
	<path d="M100,34.375V0H34.375C24.87,0,16.764,3.353,10.059,10.059S0,24.87,0,34.375V100h100V34.375z"/>
</g>
</g></g><g transform="translate(976,488) scale(0.61,0.61)"><g transform="" style="fill: rgb(255, 255, 255);">
<rect width="100" height="100"/>
</g></g><g transform="translate(1037,488) scale(0.61,0.61)"><g transform="" style="fill: rgb(255, 255, 255);">
<rect width="100" height="100"/>
</g></g><g transform="translate(1220,488) scale(0.61,0.61)"><g transform="" style="fill: rgb(255, 255, 255);">
<g>
	<path d="M100,0H0v65.625c0,9.506,3.353,17.611,10.059,24.316S24.87,100,34.375,100H100V0z"/>
</g>
</g></g><g transform="translate(1281,488) scale(0.61,0.61)"><g transform="" style="fill: rgb(255, 255, 255);">
<rect width="100" height="100"/>
</g></g><g transform="translate(1342,488) scale(0.61,0.61)"><g transform="" style="fill: rgb(255, 255, 255);">
<rect width="100" height="100"/>
</g></g><g transform="translate(1403,488) scale(0.61,0.61)"><g transform="" style="fill: rgb(255, 255, 255);">
<rect width="100" height="100"/>
</g></g><g transform="translate(1464,488) scale(0.61,0.61)"><g transform="" style="fill: rgb(255, 255, 255);">
<rect width="100" height="100"/>
</g></g><g transform="translate(1525,488) scale(0.61,0.61)"><g transform="" style="fill: rgb(255, 255, 255);">
<rect width="100" height="100"/>
</g></g><g transform="translate(1586,488) scale(0.61,0.61)"><g transform="" style="fill: rgb(255, 255, 255);">
<rect width="100" height="100"/>
</g></g><g transform="translate(1647,488) scale(0.61,0.61)"><g transform="" style="fill: rgb(255, 255, 255);">
<rect width="100" height="100"/>
</g></g><g transform="translate(1708,488) scale(0.61,0.61)"><g transform="" style="fill: rgb(255, 255, 255);">
<rect width="100" height="100"/>
</g></g><g transform="translate(1769,488) scale(0.61,0.61)"><g transform="" style="fill: rgb(255, 255, 255);">
<g>
	<path d="M100,34.375c0-9.505-3.354-17.611-10.059-24.316S75.131,0,65.625,0H0v100h100V34.375z"/>
</g>
</g></g><g transform="translate(1952,488) scale(0.61,0.61)"><g transform="" style="fill: rgb(255, 255, 255);">
<g>
	<path d="M95,64.062c0,8.556-3.019,15.851-9.053,21.885S72.618,95,64.062,95H35.938c-8.554,0-15.85-3.019-21.884-9.053
		S5,72.618,5,64.062V35.938c0-8.554,3.018-15.85,9.053-21.884S27.383,5,35.938,5h28.125c8.556,0,15.851,3.018,21.885,9.053
		S95,27.383,95,35.938V64.062z"/>
</g>
</g></g><g transform="translate(0,549) scale(0.61,0.61)"><g transform="" style="fill: rgb(255, 255, 255);">
<g>
	<path d="M100,100V0H0v100l50-28.125L100,100z"/>
</g>
</g></g><g transform="translate(122,549) scale(0.61,0.61)"><g transform="" style="fill: rgb(255, 255, 255);">
<g>
	<path d="M100,34.375V0H34.375C24.87,0,16.764,3.353,10.059,10.059S0,24.87,0,34.375V100h100V34.375z"/>
</g>
</g></g><g transform="translate(183,549) scale(0.61,0.61)"><g transform="" style="fill: rgb(255, 255, 255);">
<rect width="100" height="100"/>
</g></g><g transform="translate(244,549) scale(0.61,0.61)"><g transform="" style="fill: rgb(255, 255, 255);">
<g>
	<path d="M100,0H0v100h65.625c9.506,0,17.611-3.354,24.316-10.059S100,75.131,100,65.625V0z"/>
</g>
</g></g><g transform="translate(488,549) scale(0.61,0.61)"><g transform="" style="fill: rgb(255, 255, 255);">
<g>
	<path d="M100,100V0H0v100l50-28.125L100,100z"/>
</g>
</g></g><g transform="translate(732,549) scale(0.61,0.61)"><g transform="" style="fill: rgb(255, 255, 255);">
<g>
	<path d="M100,100V0H0v100l50-28.125L100,100z"/>
</g>
</g></g><g transform="translate(915,549) scale(0.61,0.61)"><g transform="" style="fill: rgb(255, 255, 255);">
<rect width="100" height="100"/>
</g></g><g transform="translate(976,549) scale(0.61,0.61)"><g transform="" style="fill: rgb(255, 255, 255);">
<rect width="100" height="100"/>
</g></g><g transform="translate(1037,549) scale(0.61,0.61)"><g transform="" style="fill: rgb(255, 255, 255);">
<rect width="100" height="100"/>
</g></g><g transform="translate(1098,549) scale(0.61,0.61)"><g transform="" style="fill: rgb(255, 255, 255);">
<g>
	<path d="M100,34.375c0-9.505-3.354-17.611-10.059-24.316S75.131,0,65.625,0H0v100h100V34.375z"/>
</g>
</g></g><g transform="translate(1281,549) scale(0.61,0.61)"><g transform="" style="fill: rgb(255, 255, 255);">
<g>
	<path d="M100,0H0v65.625c0,9.506,3.353,17.611,10.059,24.316S24.87,100,34.375,100H100V0z"/>
</g>
</g></g><g transform="translate(1342,549) scale(0.61,0.61)"><g transform="" style="fill: rgb(255, 255, 255);">
<rect width="100" height="100"/>
</g></g><g transform="translate(1403,549) scale(0.61,0.61)"><g transform="" style="fill: rgb(255, 255, 255);">
<rect width="100" height="100"/>
</g></g><g transform="translate(1525,549) scale(0.61,0.61)"><g transform="" style="fill: rgb(255, 255, 255);">
<g>
	<path d="M100,100V0H0v100l50-28.125L100,100z"/>
</g>
</g></g><g transform="translate(1769,549) scale(0.61,0.61)"><g transform="" style="fill: rgb(255, 255, 255);">
<rect width="100" height="100"/>
</g></g><g transform="translate(1830,549) scale(0.61,0.61)"><g transform="" style="fill: rgb(255, 255, 255);">
<rect width="100" height="100"/>
</g></g><g transform="translate(1891,549) scale(0.61,0.61)"><g transform="" style="fill: rgb(255, 255, 255);">
<g>
	<path d="M100,34.375c0-9.505-3.354-17.611-10.059-24.316S75.131,0,65.625,0H0v100h100V34.375z"/>
</g>
</g></g><g transform="translate(122,610) scale(0.61,0.61)"><g transform="" style="fill: rgb(255, 255, 255);">
<g>
	<path d="M100,100V0H0v100l50-28.125L100,100z"/>
</g>
</g></g><g transform="translate(366,610) scale(0.61,0.61)"><g transform="" style="fill: rgb(255, 255, 255);">
<g>
	<path d="M0,100h100V0H0l28.125,50L0,100z"/>
</g>
</g></g><g transform="translate(427,610) scale(0.61,0.61)"><g transform="" style="fill: rgb(255, 255, 255);">
<g>
	<path d="M100,0H0v100h100L71.875,50L100,0z"/>
</g>
</g></g><g transform="translate(610,610) scale(0.61,0.61)"><g transform="" style="fill: rgb(255, 255, 255);">
<g>
	<path d="M95,64.062c0,8.556-3.019,15.851-9.053,21.885S72.618,95,64.062,95H35.938c-8.554,0-15.85-3.019-21.884-9.053
		S5,72.618,5,64.062V35.938c0-8.554,3.018-15.85,9.053-21.884S27.383,5,35.938,5h28.125c8.556,0,15.851,3.018,21.885,9.053
		S95,27.383,95,35.938V64.062z"/>
</g>
</g></g><g transform="translate(793,610) scale(0.61,0.61)"><g transform="" style="fill: rgb(255, 255, 255);">
<g>
	<path d="M100,34.375V0H34.375C24.87,0,16.764,3.353,10.059,10.059S0,24.87,0,34.375V100h100V34.375z"/>
</g>
</g></g><g transform="translate(854,610) scale(0.61,0.61)"><g transform="" style="fill: rgb(255, 255, 255);">
<rect width="100" height="100"/>
</g></g><g transform="translate(915,610) scale(0.61,0.61)"><g transform="" style="fill: rgb(255, 255, 255);">
<rect width="100" height="100"/>
</g></g><g transform="translate(1098,610) scale(0.61,0.61)"><g transform="" style="fill: rgb(255, 255, 255);">
<g>
	<path d="M100,100V0H0v100l50-28.125L100,100z"/>
</g>
</g></g><g transform="translate(1220,610) scale(0.61,0.61)"><g transform="" style="fill: rgb(255, 255, 255);">
<g>
	<path d="M95,64.062c0,8.556-3.019,15.851-9.053,21.885S72.618,95,64.062,95H35.938c-8.554,0-15.85-3.019-21.884-9.053
		S5,72.618,5,64.062V35.938c0-8.554,3.018-15.85,9.053-21.884S27.383,5,35.938,5h28.125c8.556,0,15.851,3.018,21.885,9.053
		S95,27.383,95,35.938V64.062z"/>
</g>
</g></g><g transform="translate(1403,610) scale(0.61,0.61)"><g transform="" style="fill: rgb(255, 255, 255);">
<g>
	<path d="M100,100V0H0v100l50-28.125L100,100z"/>
</g>
</g></g><g transform="translate(1769,610) scale(0.61,0.61)"><g transform="" style="fill: rgb(255, 255, 255);">
<g>
	<path d="M100,100V0H0v100l50-28.125L100,100z"/>
</g>
</g></g><g transform="translate(1891,610) scale(0.61,0.61)"><g transform="" style="fill: rgb(255, 255, 255);">
<rect width="100" height="100"/>
</g></g><g transform="translate(61,671) scale(0.61,0.61)"><g transform="" style="fill: rgb(255, 255, 255);">
<g>
	<path d="M0,0v100h100V0L50,28.125L0,0z"/>
</g>
</g></g><g transform="translate(183,671) scale(0.61,0.61)"><g transform="" style="fill: rgb(255, 255, 255);">
<g>
	<path d="M0,0v100h100V0L50,28.125L0,0z"/>
</g>
</g></g><g transform="translate(305,671) scale(0.61,0.61)"><g transform="" style="fill: rgb(255, 255, 255);">
<g>
	<path d="M0,0v100h100V0L50,28.125L0,0z"/>
</g>
</g></g><g transform="translate(488,671) scale(0.61,0.61)"><g transform="" style="fill: rgb(255, 255, 255);">
<g>
	<path d="M0,100h100V0H0l28.125,50L0,100z"/>
</g>
</g></g><g transform="translate(549,671) scale(0.61,0.61)"><g transform="" style="fill: rgb(255, 255, 255);">
<g>
	<path d="M100,0H0v100h100L71.875,50L100,0z"/>
</g>
</g></g><g transform="translate(671,671) scale(0.61,0.61)"><g transform="" style="fill: rgb(255, 255, 255);">
<g>
	<path d="M100,34.375V0H34.375C24.87,0,16.764,3.353,10.059,10.059S0,24.87,0,34.375V100h100V34.375z"/>
</g>
</g></g><g transform="translate(732,671) scale(0.61,0.61)"><g transform="" style="fill: rgb(255, 255, 255);">
<rect width="100" height="100"/>
</g></g><g transform="translate(793,671) scale(0.61,0.61)"><g transform="" style="fill: rgb(255, 255, 255);">
<rect width="100" height="100"/>
</g></g><g transform="translate(915,671) scale(0.61,0.61)"><g transform="" style="fill: rgb(255, 255, 255);">
<g>
	<path d="M100,0H0v65.625c0,9.506,3.353,17.611,10.059,24.316S24.87,100,34.375,100H100V0z"/>
</g>
</g></g><g transform="translate(976,671) scale(0.61,0.61)"><g transform="" style="fill: rgb(255, 255, 255);">
<g>
	<path d="M100,34.375c0-9.505-3.354-17.611-10.059-24.316S75.131,0,65.625,0H0v100h100V34.375z"/>
</g>
</g></g><g transform="translate(1342,671) scale(0.61,0.61)"><g transform="" style="fill: rgb(255, 255, 255);">
<g>
	<path d="M0,0v100h100V0L50,28.125L0,0z"/>
</g>
</g></g><g transform="translate(1464,671) scale(0.61,0.61)"><g transform="" style="fill: rgb(255, 255, 255);">
<g>
	<path d="M0,100h100V0H0l28.125,50L0,100z"/>
</g>
</g></g><g transform="translate(1525,671) scale(0.61,0.61)"><g transform="" style="fill: rgb(255, 255, 255);">
<rect width="100" height="100"/>
</g></g><g transform="translate(1586,671) scale(0.61,0.61)"><g transform="" style="fill: rgb(255, 255, 255);">
<g>
	<path d="M100,34.375c0-9.505-3.354-17.611-10.059-24.316S75.131,0,65.625,0H0v100h100V34.375z"/>
</g>
</g></g><g transform="translate(1891,671) scale(0.61,0.61)"><g transform="" style="fill: rgb(255, 255, 255);">
<g>
	<path d="M100,100V0H0v100l50-28.125L100,100z"/>
</g>
</g></g><g transform="translate(0,732) scale(0.61,0.61)"><g transform="" style="fill: rgb(255, 255, 255);">
<g>
	<path d="M100,34.375V0H34.375C24.87,0,16.764,3.353,10.059,10.059S0,24.87,0,34.375V100h100V34.375z"/>
</g>
</g></g><g transform="translate(61,732) scale(0.61,0.61)"><g transform="" style="fill: rgb(255, 255, 255);">
<rect width="100" height="100"/>
</g></g><g transform="translate(122,732) scale(0.61,0.61)"><g transform="" style="fill: rgb(255, 255, 255);">
<rect width="100" height="100"/>
</g></g><g transform="translate(183,732) scale(0.61,0.61)"><g transform="" style="fill: rgb(255, 255, 255);">
<g>
	<path d="M100,0H0v100h65.625c9.506,0,17.611-3.354,24.316-10.059S100,75.131,100,65.625V0z"/>
</g>
</g></g><g transform="translate(305,732) scale(0.61,0.61)"><g transform="" style="fill: rgb(255, 255, 255);">
<rect width="100" height="100"/>
</g></g><g transform="translate(366,732) scale(0.61,0.61)"><g transform="" style="fill: rgb(255, 255, 255);">
<g>
	<path d="M100,0H0v100h100L71.875,50L100,0z"/>
</g>
</g></g><g transform="translate(671,732) scale(0.61,0.61)"><g transform="" style="fill: rgb(255, 255, 255);">
<g>
	<path d="M100,0H0v65.625c0,9.506,3.353,17.611,10.059,24.316S24.87,100,34.375,100H100V0z"/>
</g>
</g></g><g transform="translate(732,732) scale(0.61,0.61)"><g transform="" style="fill: rgb(255, 255, 255);">
<rect width="100" height="100"/>
</g></g><g transform="translate(793,732) scale(0.61,0.61)"><g transform="" style="fill: rgb(255, 255, 255);">
<rect width="100" height="100"/>
</g></g><g transform="translate(976,732) scale(0.61,0.61)"><g transform="" style="fill: rgb(255, 255, 255);">
<g>
	<path d="M100,100V0H0v100l50-28.125L100,100z"/>
</g>
</g></g><g transform="translate(1159,732) scale(0.61,0.61)"><g transform="" style="fill: rgb(255, 255, 255);">
<g>
	<path d="M0,0v100h100V0L50,28.125L0,0z"/>
</g>
</g></g><g transform="translate(1342,732) scale(0.61,0.61)"><g transform="" style="fill: rgb(255, 255, 255);">
<g>
	<path d="M100,0H0v65.625c0,9.506,3.353,17.611,10.059,24.316S24.87,100,34.375,100H100V0z"/>
</g>
</g></g><g transform="translate(1403,732) scale(0.61,0.61)"><g transform="" style="fill: rgb(255, 255, 255);">
<g>
	<path d="M100,34.375c0-9.505-3.354-17.611-10.059-24.316S75.131,0,65.625,0H0v100h100V34.375z"/>
</g>
</g></g><g transform="translate(1586,732) scale(0.61,0.61)"><g transform="" style="fill: rgb(255, 255, 255);">
<g>
	<path d="M100,0H0v65.625c0,9.506,3.353,17.611,10.059,24.316S24.87,100,34.375,100H100V0z"/>
</g>
</g></g><g transform="translate(1647,732) scale(0.61,0.61)"><g transform="" style="fill: rgb(255, 255, 255);">
<rect width="100" height="100"/>
</g></g><g transform="translate(1708,732) scale(0.61,0.61)"><g transform="" style="fill: rgb(255, 255, 255);">
<rect width="100" height="100"/>
</g></g><g transform="translate(1769,732) scale(0.61,0.61)"><g transform="" style="fill: rgb(255, 255, 255);">
<g>
	<path d="M100,34.375c0-9.505-3.354-17.611-10.059-24.316S75.131,0,65.625,0H0v100h100V34.375z"/>
</g>
</g></g><g transform="translate(1952,732) scale(0.61,0.61)"><g transform="" style="fill: rgb(255, 255, 255);">
<g>
	<path d="M95,64.062c0,8.556-3.019,15.851-9.053,21.885S72.618,95,64.062,95H35.938c-8.554,0-15.85-3.019-21.884-9.053
		S5,72.618,5,64.062V35.938c0-8.554,3.018-15.85,9.053-21.884S27.383,5,35.938,5h28.125c8.556,0,15.851,3.018,21.885,9.053
		S95,27.383,95,35.938V64.062z"/>
</g>
</g></g><g transform="translate(0,793) scale(0.61,0.61)"><g transform="" style="fill: rgb(255, 255, 255);">
<rect width="100" height="100"/>
</g></g><g transform="translate(122,793) scale(0.61,0.61)"><g transform="" style="fill: rgb(255, 255, 255);">
<rect width="100" height="100"/>
</g></g><g transform="translate(305,793) scale(0.61,0.61)"><g transform="" style="fill: rgb(255, 255, 255);">
<rect width="100" height="100"/>
</g></g><g transform="translate(549,793) scale(0.61,0.61)"><g transform="" style="fill: rgb(255, 255, 255);">
<g>
	<path d="M0,100h100V0H0l28.125,50L0,100z"/>
</g>
</g></g><g transform="translate(610,793) scale(0.61,0.61)"><g transform="" style="fill: rgb(255, 255, 255);">
<g>
	<path d="M100,34.375c0-9.505-3.354-17.611-10.059-24.316S75.131,0,65.625,0H0v100h100V34.375z"/>
</g>
</g></g><g transform="translate(793,793) scale(0.61,0.61)"><g transform="" style="fill: rgb(255, 255, 255);">
<g>
	<path d="M100,0H0v65.625c0,9.506,3.353,17.611,10.059,24.316S24.87,100,34.375,100H100V0z"/>
</g>
</g></g><g transform="translate(854,793) scale(0.61,0.61)"><g transform="" style="fill: rgb(255, 255, 255);">
<g>
	<path d="M100,34.375c0-9.505-3.354-17.611-10.059-24.316S75.131,0,65.625,0H0v100h100V34.375z"/>
</g>
</g></g><g transform="translate(1098,793) scale(0.61,0.61)"><g transform="" style="fill: rgb(255, 255, 255);">
<g>
	<path d="M0,100h100V0H0l28.125,50L0,100z"/>
</g>
</g></g><g transform="translate(1159,793) scale(0.61,0.61)"><g transform="" style="fill: rgb(255, 255, 255);">
<rect width="100" height="100"/>
</g></g><g transform="translate(1220,793) scale(0.61,0.61)"><g transform="" style="fill: rgb(255, 255, 255);">
<g>
	<path d="M100,34.375c0-9.505-3.354-17.611-10.059-24.316S75.131,0,65.625,0H0v100h100V34.375z"/>
</g>
</g></g><g transform="translate(1403,793) scale(0.61,0.61)"><g transform="" style="fill: rgb(255, 255, 255);">
<rect width="100" height="100"/>
</g></g><g transform="translate(1647,793) scale(0.61,0.61)"><g transform="" style="fill: rgb(255, 255, 255);">
<rect width="100" height="100"/>
</g></g><g transform="translate(1769,793) scale(0.61,0.61)"><g transform="" style="fill: rgb(255, 255, 255);">
<rect width="100" height="100"/>
</g></g><g transform="translate(0,854) scale(0.61,0.61)"><g transform="" style="fill: rgb(255, 255, 255);">
<rect width="100" height="100"/>
</g></g><g transform="translate(61,854) scale(0.61,0.61)"><g transform="" style="fill: rgb(255, 255, 255);">
<rect width="100" height="100"/>
</g></g><g transform="translate(122,854) scale(0.61,0.61)"><g transform="" style="fill: rgb(255, 255, 255);">
<rect width="100" height="100"/>
</g></g><g transform="translate(305,854) scale(0.61,0.61)"><g transform="" style="fill: rgb(255, 255, 255);">
<g>
	<path d="M100,0H0v65.625c0,9.506,3.353,17.611,10.059,24.316S24.87,100,34.375,100H100V0z"/>
</g>
</g></g><g transform="translate(366,854) scale(0.61,0.61)"><g transform="" style="fill: rgb(255, 255, 255);">
<rect width="100" height="100"/>
</g></g><g transform="translate(427,854) scale(0.61,0.61)"><g transform="" style="fill: rgb(255, 255, 255);">
<rect width="100" height="100"/>
</g></g><g transform="translate(488,854) scale(0.61,0.61)"><g transform="" style="fill: rgb(255, 255, 255);">
<g>
	<path d="M100,0H0v100h100L71.875,50L100,0z"/>
</g>
</g></g><g transform="translate(610,854) scale(0.61,0.61)"><g transform="" style="fill: rgb(255, 255, 255);">
<g>
	<path d="M100,0H0v65.625c0,9.506,3.353,17.611,10.059,24.316S24.87,100,34.375,100H100V0z"/>
</g>
</g></g><g transform="translate(671,854) scale(0.61,0.61)"><g transform="" style="fill: rgb(255, 255, 255);">
<g>
	<path d="M100,0H0v100h100L71.875,50L100,0z"/>
</g>
</g></g><g transform="translate(854,854) scale(0.61,0.61)"><g transform="" style="fill: rgb(255, 255, 255);">
<rect width="100" height="100"/>
</g></g><g transform="translate(915,854) scale(0.61,0.61)"><g transform="" style="fill: rgb(255, 255, 255);">
<g>
	<path d="M100,34.375c0-9.505-3.354-17.611-10.059-24.316S75.131,0,65.625,0H0v100h100V34.375z"/>
</g>
</g></g><g transform="translate(1220,854) scale(0.61,0.61)"><g transform="" style="fill: rgb(255, 255, 255);">
<g>
	<path d="M100,100V0H0v100l50-28.125L100,100z"/>
</g>
</g></g><g transform="translate(1342,854) scale(0.61,0.61)"><g transform="" style="fill: rgb(255, 255, 255);">
<g>
	<path d="M0,100h100V0H0l28.125,50L0,100z"/>
</g>
</g></g><g transform="translate(1403,854) scale(0.61,0.61)"><g transform="" style="fill: rgb(255, 255, 255);">
<rect width="100" height="100"/>
</g></g><g transform="translate(1464,854) scale(0.61,0.61)"><g transform="" style="fill: rgb(255, 255, 255);">
<rect width="100" height="100"/>
</g></g><g transform="translate(1525,854) scale(0.61,0.61)"><g transform="" style="fill: rgb(255, 255, 255);">
<rect width="100" height="100"/>
</g></g><g transform="translate(1586,854) scale(0.61,0.61)"><g transform="" style="fill: rgb(255, 255, 255);">
<rect width="100" height="100"/>
</g></g><g transform="translate(1647,854) scale(0.61,0.61)"><g transform="" style="fill: rgb(255, 255, 255);">
<g>
	<path d="M100,0H0v100h65.625c9.506,0,17.611-3.354,24.316-10.059S100,75.131,100,65.625V0z"/>
</g>
</g></g><g transform="translate(1769,854) scale(0.61,0.61)"><g transform="" style="fill: rgb(255, 255, 255);">
<g>
	<path d="M100,100V0H0v100l50-28.125L100,100z"/>
</g>
</g></g><g transform="translate(1891,854) scale(0.61,0.61)"><g transform="" style="fill: rgb(255, 255, 255);">
<g>
	<path d="M95,64.062c0,8.556-3.019,15.851-9.053,21.885S72.618,95,64.062,95H35.938c-8.554,0-15.85-3.019-21.884-9.053
		S5,72.618,5,64.062V35.938c0-8.554,3.018-15.85,9.053-21.884S27.383,5,35.938,5h28.125c8.556,0,15.851,3.018,21.885,9.053
		S95,27.383,95,35.938V64.062z"/>
</g>
</g></g><g transform="translate(0,915) scale(0.61,0.61)"><g transform="" style="fill: rgb(255, 255, 255);">
<g>
	<path d="M100,100V0H0v100l50-28.125L100,100z"/>
</g>
</g></g><g transform="translate(122,915) scale(0.61,0.61)"><g transform="" style="fill: rgb(255, 255, 255);">
<g>
	<path d="M100,100V0H0v100l50-28.125L100,100z"/>
</g>
</g></g><g transform="translate(549,915) scale(0.61,0.61)"><g transform="" style="fill: rgb(255, 255, 255);">
<g>
	<path d="M95,64.062c0,8.556-3.019,15.851-9.053,21.885S72.618,95,64.062,95H35.938c-8.554,0-15.85-3.019-21.884-9.053
		S5,72.618,5,64.062V35.938c0-8.554,3.018-15.85,9.053-21.884S27.383,5,35.938,5h28.125c8.556,0,15.851,3.018,21.885,9.053
		S95,27.383,95,35.938V64.062z"/>
</g>
</g></g><g transform="translate(854,915) scale(0.61,0.61)"><g transform="" style="fill: rgb(255, 255, 255);">
<rect width="100" height="100"/>
</g></g><g transform="translate(915,915) scale(0.61,0.61)"><g transform="" style="fill: rgb(255, 255, 255);">
<rect width="100" height="100"/>
</g></g><g transform="translate(976,915) scale(0.61,0.61)"><g transform="" style="fill: rgb(255, 255, 255);">
<rect width="100" height="100"/>
</g></g><g transform="translate(1037,915) scale(0.61,0.61)"><g transform="" style="fill: rgb(255, 255, 255);">
<rect width="100" height="100"/>
</g></g><g transform="translate(1098,915) scale(0.61,0.61)"><g transform="" style="fill: rgb(255, 255, 255);">
<g>
	<path d="M100,0H0v100h100L71.875,50L100,0z"/>
</g>
</g></g><g transform="translate(1281,915) scale(0.61,0.61)"><g transform="" style="fill: rgb(255, 255, 255);">
<g>
	<path d="M0,0v100h100V0L50,28.125L0,0z"/>
</g>
</g></g><g transform="translate(1403,915) scale(0.61,0.61)"><g transform="" style="fill: rgb(255, 255, 255);">
<g>
	<path d="M100,100V0H0v100l50-28.125L100,100z"/>
</g>
</g></g><g transform="translate(1525,915) scale(0.61,0.61)"><g transform="" style="fill: rgb(255, 255, 255);">
<g>
	<path d="M100,0H0v65.625c0,9.506,3.353,17.611,10.059,24.316S24.87,100,34.375,100H100V0z"/>
</g>
</g></g><g transform="translate(1586,915) scale(0.61,0.61)"><g transform="" style="fill: rgb(255, 255, 255);">
<rect width="100" height="100"/>
</g></g><g transform="translate(61,976) scale(0.61,0.61)"><g transform="" style="fill: rgb(255, 255, 255);">
<g>
	<path d="M0,0v100h100V0L50,28.125L0,0z"/>
</g>
</g></g><g transform="translate(183,976) scale(0.61,0.61)"><g transform="" style="fill: rgb(255, 255, 255);">
<g>
	<path d="M95,64.062c0,8.556-3.019,15.851-9.053,21.885S72.618,95,64.062,95H35.938c-8.554,0-15.85-3.019-21.884-9.053
		S5,72.618,5,64.062V35.938c0-8.554,3.018-15.85,9.053-21.884S27.383,5,35.938,5h28.125c8.556,0,15.851,3.018,21.885,9.053
		S95,27.383,95,35.938V64.062z"/>
</g>
</g></g><g transform="translate(305,976) scale(0.61,0.61)"><g transform="" style="fill: rgb(255, 255, 255);">
<g>
	<path d="M100,34.375V0H34.375C24.87,0,16.764,3.353,10.059,10.059S0,24.87,0,34.375V100h100V34.375z"/>
</g>
</g></g><g transform="translate(366,976) scale(0.61,0.61)"><g transform="" style="fill: rgb(255, 255, 255);">
<g>
	<path d="M100,0H0v100h100L71.875,50L100,0z"/>
</g>
</g></g><g transform="translate(488,976) scale(0.61,0.61)"><g transform="" style="fill: rgb(255, 255, 255);">
<g>
	<path d="M0,0v100h100V0L50,28.125L0,0z"/>
</g>
</g></g><g transform="translate(671,976) scale(0.61,0.61)"><g transform="" style="fill: rgb(255, 255, 255);">
<g>
	<path d="M0,0v100h100V0L50,28.125L0,0z"/>
</g>
</g></g><g transform="translate(854,976) scale(0.61,0.61)"><g transform="" style="fill: rgb(255, 255, 255);">
<rect width="100" height="100"/>
</g></g><g transform="translate(1037,976) scale(0.61,0.61)"><g transform="" style="fill: rgb(255, 255, 255);">
<g>
	<path d="M100,100V0H0v100l50-28.125L100,100z"/>
</g>
</g></g><g transform="translate(1159,976) scale(0.61,0.61)"><g transform="" style="fill: rgb(255, 255, 255);">
<g>
	<path d="M0,100h100V0H0l28.125,50L0,100z"/>
</g>
</g></g><g transform="translate(1220,976) scale(0.61,0.61)"><g transform="" style="fill: rgb(255, 255, 255);">
<rect width="100" height="100"/>
</g></g><g transform="translate(1281,976) scale(0.61,0.61)"><g transform="" style="fill: rgb(255, 255, 255);">
<rect width="100" height="100"/>
</g></g><g transform="translate(1342,976) scale(0.61,0.61)"><g transform="" style="fill: rgb(255, 255, 255);">
<g>
	<path d="M100,34.375c0-9.505-3.354-17.611-10.059-24.316S75.131,0,65.625,0H0v100h100V34.375z"/>
</g>
</g></g><g transform="translate(1464,976) scale(0.61,0.61)"><g transform="" style="fill: rgb(255, 255, 255);">
<g>
	<path d="M0,0v100h100V0L50,28.125L0,0z"/>
</g>
</g></g><g transform="translate(1586,976) scale(0.61,0.61)"><g transform="" style="fill: rgb(255, 255, 255);">
<g>
	<path d="M100,100V0H0v100l50-28.125L100,100z"/>
</g>
</g></g><g transform="translate(1708,976) scale(0.61,0.61)"><g transform="" style="fill: rgb(255, 255, 255);">
<g>
	<path d="M95,64.062c0,8.556-3.019,15.851-9.053,21.885S72.618,95,64.062,95H35.938c-8.554,0-15.85-3.019-21.884-9.053
		S5,72.618,5,64.062V35.938c0-8.554,3.018-15.85,9.053-21.884S27.383,5,35.938,5h28.125c8.556,0,15.851,3.018,21.885,9.053
		S95,27.383,95,35.938V64.062z"/>
</g>
</g></g><g transform="translate(1891,976) scale(0.61,0.61)"><g transform="" style="fill: rgb(255, 255, 255);">
<g>
	<path d="M0,0v100h100V0L50,28.125L0,0z"/>
</g>
</g></g><g transform="translate(0,1037) scale(0.61,0.61)"><g transform="" style="fill: rgb(255, 255, 255);">
<g>
	<path d="M0,100h100V0H0l28.125,50L0,100z"/>
</g>
</g></g><g transform="translate(61,1037) scale(0.61,0.61)"><g transform="" style="fill: rgb(255, 255, 255);">
<rect width="100" height="100"/>
</g></g><g transform="translate(122,1037) scale(0.61,0.61)"><g transform="" style="fill: rgb(255, 255, 255);">
<g>
	<path d="M100,0H0v100h100L71.875,50L100,0z"/>
</g>
</g></g><g transform="translate(305,1037) scale(0.61,0.61)"><g transform="" style="fill: rgb(255, 255, 255);">
<rect width="100" height="100"/>
</g></g><g transform="translate(488,1037) scale(0.61,0.61)"><g transform="" style="fill: rgb(255, 255, 255);">
<rect width="100" height="100"/>
</g></g><g transform="translate(671,1037) scale(0.61,0.61)"><g transform="" style="fill: rgb(255, 255, 255);">
<g>
	<path d="M100,100V0H0v100l50-28.125L100,100z"/>
</g>
</g></g><g transform="translate(793,1037) scale(0.61,0.61)"><g transform="" style="fill: rgb(255, 255, 255);">
<g>
	<path d="M100,34.375V0H34.375C24.87,0,16.764,3.353,10.059,10.059S0,24.87,0,34.375V100h100V34.375z"/>
</g>
</g></g><g transform="translate(854,1037) scale(0.61,0.61)"><g transform="" style="fill: rgb(255, 255, 255);">
<rect width="100" height="100"/>
</g></g><g transform="translate(915,1037) scale(0.61,0.61)"><g transform="" style="fill: rgb(255, 255, 255);">
<rect width="100" height="100"/>
</g></g><g transform="translate(976,1037) scale(0.61,0.61)"><g transform="" style="fill: rgb(255, 255, 255);">
<g>
	<path d="M100,0H0v100h100L71.875,50L100,0z"/>
</g>
</g></g><g transform="translate(1098,1037) scale(0.61,0.61)"><g transform="" style="fill: rgb(255, 255, 255);">
<g>
	<path d="M95,64.062c0,8.556-3.019,15.851-9.053,21.885S72.618,95,64.062,95H35.938c-8.554,0-15.85-3.019-21.884-9.053
		S5,72.618,5,64.062V35.938c0-8.554,3.018-15.85,9.053-21.884S27.383,5,35.938,5h28.125c8.556,0,15.851,3.018,21.885,9.053
		S95,27.383,95,35.938V64.062z"/>
</g>
</g></g><g transform="translate(1342,1037) scale(0.61,0.61)"><g transform="" style="fill: rgb(255, 255, 255);">
<rect width="100" height="100"/>
</g></g><g transform="translate(1403,1037) scale(0.61,0.61)"><g transform="" style="fill: rgb(255, 255, 255);">
<rect width="100" height="100"/>
</g></g><g transform="translate(1464,1037) scale(0.61,0.61)"><g transform="" style="fill: rgb(255, 255, 255);">
<rect width="100" height="100"/>
</g></g><g transform="translate(1769,1037) scale(0.61,0.61)"><g transform="" style="fill: rgb(255, 255, 255);">
<g>
	<path d="M100,34.375V0H34.375C24.87,0,16.764,3.353,10.059,10.059S0,24.87,0,34.375V100h100V34.375z"/>
</g>
</g></g><g transform="translate(1830,1037) scale(0.61,0.61)"><g transform="" style="fill: rgb(255, 255, 255);">
<rect width="100" height="100"/>
</g></g><g transform="translate(1891,1037) scale(0.61,0.61)"><g transform="" style="fill: rgb(255, 255, 255);">
<rect width="100" height="100"/>
</g></g><g transform="translate(61,1098) scale(0.61,0.61)"><g transform="" style="fill: rgb(255, 255, 255);">
<g>
	<path d="M100,100V0H0v100l50-28.125L100,100z"/>
</g>
</g></g><g transform="translate(183,1098) scale(0.61,0.61)"><g transform="" style="fill: rgb(255, 255, 255);">
<g>
	<path d="M100,34.375V0H34.375C24.87,0,16.764,3.353,10.059,10.059S0,24.87,0,34.375V100h100V34.375z"/>
</g>
</g></g><g transform="translate(244,1098) scale(0.61,0.61)"><g transform="" style="fill: rgb(255, 255, 255);">
<rect width="100" height="100"/>
</g></g><g transform="translate(305,1098) scale(0.61,0.61)"><g transform="" style="fill: rgb(255, 255, 255);">
<rect width="100" height="100"/>
</g></g><g transform="translate(366,1098) scale(0.61,0.61)"><g transform="" style="fill: rgb(255, 255, 255);">
<rect width="100" height="100"/>
</g></g><g transform="translate(427,1098) scale(0.61,0.61)"><g transform="" style="fill: rgb(255, 255, 255);">
<rect width="100" height="100"/>
</g></g><g transform="translate(488,1098) scale(0.61,0.61)"><g transform="" style="fill: rgb(255, 255, 255);">
<g>
	<path d="M100,0H0v100h65.625c9.506,0,17.611-3.354,24.316-10.059S100,75.131,100,65.625V0z"/>
</g>
</g></g><g transform="translate(793,1098) scale(0.61,0.61)"><g transform="" style="fill: rgb(255, 255, 255);">
<rect width="100" height="100"/>
</g></g><g transform="translate(915,1098) scale(0.61,0.61)"><g transform="" style="fill: rgb(255, 255, 255);">
<g>
	<path d="M100,100V0H0v100l50-28.125L100,100z"/>
</g>
</g></g><g transform="translate(1037,1098) scale(0.61,0.61)"><g transform="" style="fill: rgb(255, 255, 255);">
<g>
	<path d="M0,0v100h100V0L50,28.125L0,0z"/>
</g>
</g></g><g transform="translate(1281,1098) scale(0.61,0.61)"><g transform="" style="fill: rgb(255, 255, 255);">
<g>
	<path d="M100,34.375V0H34.375C24.87,0,16.764,3.353,10.059,10.059S0,24.87,0,34.375V100h100V34.375z"/>
</g>
</g></g><g transform="translate(1342,1098) scale(0.61,0.61)"><g transform="" style="fill: rgb(255, 255, 255);">
<rect width="100" height="100"/>
</g></g><g transform="translate(1403,1098) scale(0.61,0.61)"><g transform="" style="fill: rgb(255, 255, 255);">
<rect width="100" height="100"/>
</g></g><g transform="translate(1464,1098) scale(0.61,0.61)"><g transform="" style="fill: rgb(255, 255, 255);">
<rect width="100" height="100"/>
</g></g><g transform="translate(1525,1098) scale(0.61,0.61)"><g transform="" style="fill: rgb(255, 255, 255);">
<g>
	<path d="M100,34.375c0-9.505-3.354-17.611-10.059-24.316S75.131,0,65.625,0H0v100h100V34.375z"/>
</g>
</g></g><g transform="translate(1647,1098) scale(0.61,0.61)"><g transform="" style="fill: rgb(255, 255, 255);">
<g>
	<path d="M0,0v100h100V0L50,28.125L0,0z"/>
</g>
</g></g><g transform="translate(1769,1098) scale(0.61,0.61)"><g transform="" style="fill: rgb(255, 255, 255);">
<g>
	<path d="M100,100V0H0v100l50-28.125L100,100z"/>
</g>
</g></g><g transform="translate(1891,1098) scale(0.61,0.61)"><g transform="" style="fill: rgb(255, 255, 255);">
<rect width="100" height="100"/>
</g></g><g transform="translate(183,1159) scale(0.61,0.61)"><g transform="" style="fill: rgb(255, 255, 255);">
<g>
	<path d="M100,100V0H0v100l50-28.125L100,100z"/>
</g>
</g></g><g transform="translate(427,1159) scale(0.61,0.61)"><g transform="" style="fill: rgb(255, 255, 255);">
<g>
	<path d="M100,100V0H0v100l50-28.125L100,100z"/>
</g>
</g></g><g transform="translate(549,1159) scale(0.61,0.61)"><g transform="" style="fill: rgb(255, 255, 255);">
<g>
	<path d="M95,64.062c0,8.556-3.019,15.851-9.053,21.885S72.618,95,64.062,95H35.938c-8.554,0-15.85-3.019-21.884-9.053
		S5,72.618,5,64.062V35.938c0-8.554,3.018-15.85,9.053-21.884S27.383,5,35.938,5h28.125c8.556,0,15.851,3.018,21.885,9.053
		S95,27.383,95,35.938V64.062z"/>
</g>
</g></g><g transform="translate(671,1159) scale(0.61,0.61)"><g transform="" style="fill: rgb(255, 255, 255);">
<g>
	<path d="M0,100h100V0H0l28.125,50L0,100z"/>
</g>
</g></g><g transform="translate(732,1159) scale(0.61,0.61)"><g transform="" style="fill: rgb(255, 255, 255);">
<rect width="100" height="100"/>
</g></g><g transform="translate(793,1159) scale(0.61,0.61)"><g transform="" style="fill: rgb(255, 255, 255);">
<g>
	<path d="M100,0H0v100h65.625c9.506,0,17.611-3.354,24.316-10.059S100,75.131,100,65.625V0z"/>
</g>
</g></g><g transform="translate(1037,1159) scale(0.61,0.61)"><g transform="" style="fill: rgb(255, 255, 255);">
<g>
	<path d="M100,0H0v65.625c0,9.506,3.353,17.611,10.059,24.316S24.87,100,34.375,100H100V0z"/>
</g>
</g></g><g transform="translate(1098,1159) scale(0.61,0.61)"><g transform="" style="fill: rgb(255, 255, 255);">
<rect width="100" height="100"/>
</g></g><g transform="translate(1159,1159) scale(0.61,0.61)"><g transform="" style="fill: rgb(255, 255, 255);">
<g>
	<path d="M100,34.375c0-9.505-3.354-17.611-10.059-24.316S75.131,0,65.625,0H0v100h100V34.375z"/>
</g>
</g></g><g transform="translate(1281,1159) scale(0.61,0.61)"><g transform="" style="fill: rgb(255, 255, 255);">
<g>
	<path d="M100,100V0H0v100l50-28.125L100,100z"/>
</g>
</g></g><g transform="translate(1464,1159) scale(0.61,0.61)"><g transform="" style="fill: rgb(255, 255, 255);">
<rect width="100" height="100"/>
</g></g><g transform="translate(1525,1159) scale(0.61,0.61)"><g transform="" style="fill: rgb(255, 255, 255);">
<g>
	<path d="M100,0H0v100h65.625c9.506,0,17.611-3.354,24.316-10.059S100,75.131,100,65.625V0z"/>
</g>
</g></g><g transform="translate(1647,1159) scale(0.61,0.61)"><g transform="" style="fill: rgb(255, 255, 255);">
<g>
	<path d="M100,100V0H0v100l50-28.125L100,100z"/>
</g>
</g></g><g transform="translate(1891,1159) scale(0.61,0.61)"><g transform="" style="fill: rgb(255, 255, 255);">
<g>
	<path d="M100,100V0H0v100l50-28.125L100,100z"/>
</g>
</g></g><g transform="translate(61,1220) scale(0.61,0.61)"><g transform="" style="fill: rgb(255, 255, 255);">
<g>
	<path d="M0,100h100V0H0l28.125,50L0,100z"/>
</g>
</g></g><g transform="translate(122,1220) scale(0.61,0.61)"><g transform="" style="fill: rgb(255, 255, 255);">
<g>
	<path d="M100,0H0v100h100L71.875,50L100,0z"/>
</g>
</g></g><g transform="translate(366,1220) scale(0.61,0.61)"><g transform="" style="fill: rgb(255, 255, 255);">
<g>
	<path d="M95,64.062c0,8.556-3.019,15.851-9.053,21.885S72.618,95,64.062,95H35.938c-8.554,0-15.85-3.019-21.884-9.053
		S5,72.618,5,64.062V35.938c0-8.554,3.018-15.85,9.053-21.884S27.383,5,35.938,5h28.125c8.556,0,15.851,3.018,21.885,9.053
		S95,27.383,95,35.938V64.062z"/>
</g>
</g></g><g transform="translate(610,1220) scale(0.61,0.61)"><g transform="" style="fill: rgb(255, 255, 255);">
<g>
	<path d="M95,64.062c0,8.556-3.019,15.851-9.053,21.885S72.618,95,64.062,95H35.938c-8.554,0-15.85-3.019-21.884-9.053
		S5,72.618,5,64.062V35.938c0-8.554,3.018-15.85,9.053-21.884S27.383,5,35.938,5h28.125c8.556,0,15.851,3.018,21.885,9.053
		S95,27.383,95,35.938V64.062z"/>
</g>
</g></g><g transform="translate(732,1220) scale(0.61,0.61)"><g transform="" style="fill: rgb(255, 255, 255);">
<g>
	<path d="M100,100V0H0v100l50-28.125L100,100z"/>
</g>
</g></g><g transform="translate(1098,1220) scale(0.61,0.61)"><g transform="" style="fill: rgb(255, 255, 255);">
<g>
	<path d="M100,0H0v65.625c0,9.506,3.353,17.611,10.059,24.316S24.87,100,34.375,100H100V0z"/>
</g>
</g></g><g transform="translate(1159,1220) scale(0.61,0.61)"><g transform="" style="fill: rgb(255, 255, 255);">
<rect width="100" height="100"/>
</g></g><g transform="translate(1220,1220) scale(0.61,0.61)"><g transform="" style="fill: rgb(255, 255, 255);">
<g>
	<path d="M100,0H0v100h100L71.875,50L100,0z"/>
</g>
</g></g><g transform="translate(1464,1220) scale(0.61,0.61)"><g transform="" style="fill: rgb(255, 255, 255);">
<g>
	<path d="M100,100V0H0v100l50-28.125L100,100z"/>
</g>
</g></g><g transform="translate(1586,1220) scale(0.61,0.61)"><g transform="" style="fill: rgb(255, 255, 255);">
<g>
	<path d="M95,64.062c0,8.556-3.019,15.851-9.053,21.885S72.618,95,64.062,95H35.938c-8.554,0-15.85-3.019-21.884-9.053
		S5,72.618,5,64.062V35.938c0-8.554,3.018-15.85,9.053-21.884S27.383,5,35.938,5h28.125c8.556,0,15.851,3.018,21.885,9.053
		S95,27.383,95,35.938V64.062z"/>
</g>
</g></g><g transform="translate(1708,1220) scale(0.61,0.61)"><g transform="" style="fill: rgb(255, 255, 255);">
<g>
	<path d="M0,100h100V0H0l28.125,50L0,100z"/>
</g>
</g></g><g transform="translate(1769,1220) scale(0.61,0.61)"><g transform="" style="fill: rgb(255, 255, 255);">
<g>
	<path d="M100,34.375c0-9.505-3.354-17.611-10.059-24.316S75.131,0,65.625,0H0v100h100V34.375z"/>
</g>
</g></g><g transform="translate(0,1281) scale(0.61,0.61)"><g transform="" style="fill: rgb(255, 255, 255);">
<g>
	<path d="M95,64.062c0,8.556-3.019,15.851-9.053,21.885S72.618,95,64.062,95H35.938c-8.554,0-15.85-3.019-21.884-9.053
		S5,72.618,5,64.062V35.938c0-8.554,3.018-15.85,9.053-21.884S27.383,5,35.938,5h28.125c8.556,0,15.851,3.018,21.885,9.053
		S95,27.383,95,35.938V64.062z"/>
</g>
</g></g><g transform="translate(183,1281) scale(0.61,0.61)"><g transform="" style="fill: rgb(255, 255, 255);">
<g>
	<path d="M0,100h100V0H0l28.125,50L0,100z"/>
</g>
</g></g><g transform="translate(244,1281) scale(0.61,0.61)"><g transform="" style="fill: rgb(255, 255, 255);">
<g>
	<path d="M100,34.375c0-9.505-3.354-17.611-10.059-24.316S75.131,0,65.625,0H0v100h100V34.375z"/>
</g>
</g></g><g transform="translate(671,1281) scale(0.61,0.61)"><g transform="" style="fill: rgb(255, 255, 255);">
<g>
	<path d="M0,0v100h100V0L50,28.125L0,0z"/>
</g>
</g></g><g transform="translate(793,1281) scale(0.61,0.61)"><g transform="" style="fill: rgb(255, 255, 255);">
<g>
	<path d="M95,64.062c0,8.556-3.019,15.851-9.053,21.885S72.618,95,64.062,95H35.938c-8.554,0-15.85-3.019-21.884-9.053
		S5,72.618,5,64.062V35.938c0-8.554,3.018-15.85,9.053-21.884S27.383,5,35.938,5h28.125c8.556,0,15.851,3.018,21.885,9.053
		S95,27.383,95,35.938V64.062z"/>
</g>
</g></g><g transform="translate(976,1281) scale(0.61,0.61)"><g transform="" style="fill: rgb(255, 255, 255);">
<g>
	<path d="M100,34.375V0H34.375C24.87,0,16.764,3.353,10.059,10.059S0,24.87,0,34.375V100h100V34.375z"/>
</g>
</g></g><g transform="translate(1037,1281) scale(0.61,0.61)"><g transform="" style="fill: rgb(255, 255, 255);">
<g>
	<path d="M100,0H0v100h100L71.875,50L100,0z"/>
</g>
</g></g><g transform="translate(1159,1281) scale(0.61,0.61)"><g transform="" style="fill: rgb(255, 255, 255);">
<rect width="100" height="100"/>
</g></g><g transform="translate(1342,1281) scale(0.61,0.61)"><g transform="" style="fill: rgb(255, 255, 255);">
<g>
	<path d="M0,100h100V0H0l28.125,50L0,100z"/>
</g>
</g></g><g transform="translate(1403,1281) scale(0.61,0.61)"><g transform="" style="fill: rgb(255, 255, 255);">
<g>
	<path d="M100,34.375c0-9.505-3.354-17.611-10.059-24.316S75.131,0,65.625,0H0v100h100V34.375z"/>
</g>
</g></g><g transform="translate(1525,1281) scale(0.61,0.61)"><g transform="" style="fill: rgb(255, 255, 255);">
<g>
	<path d="M0,0v100h100V0L50,28.125L0,0z"/>
</g>
</g></g><g transform="translate(1647,1281) scale(0.61,0.61)"><g transform="" style="fill: rgb(255, 255, 255);">
<g>
	<path d="M95,64.062c0,8.556-3.019,15.851-9.053,21.885S72.618,95,64.062,95H35.938c-8.554,0-15.85-3.019-21.884-9.053
		S5,72.618,5,64.062V35.938c0-8.554,3.018-15.85,9.053-21.884S27.383,5,35.938,5h28.125c8.556,0,15.851,3.018,21.885,9.053
		S95,27.383,95,35.938V64.062z"/>
</g>
</g></g><g transform="translate(1769,1281) scale(0.61,0.61)"><g transform="" style="fill: rgb(255, 255, 255);">
<g>
	<path d="M100,100V0H0v100l50-28.125L100,100z"/>
</g>
</g></g><g transform="translate(1891,1281) scale(0.61,0.61)"><g transform="" style="fill: rgb(255, 255, 255);">
<g>
	<path d="M0,0v100h100V0L50,28.125L0,0z"/>
</g>
</g></g><g transform="translate(122,1342) scale(0.61,0.61)"><g transform="" style="fill: rgb(255, 255, 255);">
<g>
	<path d="M95,64.062c0,8.556-3.019,15.851-9.053,21.885S72.618,95,64.062,95H35.938c-8.554,0-15.85-3.019-21.884-9.053
		S5,72.618,5,64.062V35.938c0-8.554,3.018-15.85,9.053-21.884S27.383,5,35.938,5h28.125c8.556,0,15.851,3.018,21.885,9.053
		S95,27.383,95,35.938V64.062z"/>
</g>
</g></g><g transform="translate(244,1342) scale(0.61,0.61)"><g transform="" style="fill: rgb(255, 255, 255);">
<g>
	<path d="M100,100V0H0v100l50-28.125L100,100z"/>
</g>
</g></g><g transform="translate(366,1342) scale(0.61,0.61)"><g transform="" style="fill: rgb(255, 255, 255);">
<g>
	<path d="M95,64.062c0,8.556-3.019,15.851-9.053,21.885S72.618,95,64.062,95H35.938c-8.554,0-15.85-3.019-21.884-9.053
		S5,72.618,5,64.062V35.938c0-8.554,3.018-15.85,9.053-21.884S27.383,5,35.938,5h28.125c8.556,0,15.851,3.018,21.885,9.053
		S95,27.383,95,35.938V64.062z"/>
</g>
</g></g><g transform="translate(549,1342) scale(0.61,0.61)"><g transform="" style="fill: rgb(255, 255, 255);">
<g>
	<path d="M0,100h100V0H0l28.125,50L0,100z"/>
</g>
</g></g><g transform="translate(610,1342) scale(0.61,0.61)"><g transform="" style="fill: rgb(255, 255, 255);">
<rect width="100" height="100"/>
</g></g><g transform="translate(671,1342) scale(0.61,0.61)"><g transform="" style="fill: rgb(255, 255, 255);">
<rect width="100" height="100"/>
</g></g><g transform="translate(732,1342) scale(0.61,0.61)"><g transform="" style="fill: rgb(255, 255, 255);">
<g>
	<path d="M100,34.375c0-9.505-3.354-17.611-10.059-24.316S75.131,0,65.625,0H0v100h100V34.375z"/>
</g>
</g></g><g transform="translate(976,1342) scale(0.61,0.61)"><g transform="" style="fill: rgb(255, 255, 255);">
<g>
	<path d="M100,100V0H0v100l50-28.125L100,100z"/>
</g>
</g></g><g transform="translate(1098,1342) scale(0.61,0.61)"><g transform="" style="fill: rgb(255, 255, 255);">
<g>
	<path d="M100,34.375V0H34.375C24.87,0,16.764,3.353,10.059,10.059S0,24.87,0,34.375V100h100V34.375z"/>
</g>
</g></g><g transform="translate(1159,1342) scale(0.61,0.61)"><g transform="" style="fill: rgb(255, 255, 255);">
<rect width="100" height="100"/>
</g></g><g transform="translate(1281,1342) scale(0.61,0.61)"><g transform="" style="fill: rgb(255, 255, 255);">
<g>
	<path d="M0,0v100h100V0L50,28.125L0,0z"/>
</g>
</g></g><g transform="translate(1403,1342) scale(0.61,0.61)"><g transform="" style="fill: rgb(255, 255, 255);">
<rect width="100" height="100"/>
</g></g><g transform="translate(1525,1342) scale(0.61,0.61)"><g transform="" style="fill: rgb(255, 255, 255);">
<rect width="100" height="100"/>
</g></g><g transform="translate(1830,1342) scale(0.61,0.61)"><g transform="" style="fill: rgb(255, 255, 255);">
<g>
	<path d="M0,100h100V0H0l28.125,50L0,100z"/>
</g>
</g></g><g transform="translate(1891,1342) scale(0.61,0.61)"><g transform="" style="fill: rgb(255, 255, 255);">
<rect width="100" height="100"/>
</g></g><g transform="translate(305,1403) scale(0.61,0.61)"><g transform="" style="fill: rgb(255, 255, 255);">
<g>
	<path d="M95,64.062c0,8.556-3.019,15.851-9.053,21.885S72.618,95,64.062,95H35.938c-8.554,0-15.85-3.019-21.884-9.053
		S5,72.618,5,64.062V35.938c0-8.554,3.018-15.85,9.053-21.884S27.383,5,35.938,5h28.125c8.556,0,15.851,3.018,21.885,9.053
		S95,27.383,95,35.938V64.062z"/>
</g>
</g></g><g transform="translate(427,1403) scale(0.61,0.61)"><g transform="" style="fill: rgb(255, 255, 255);">
<g>
	<path d="M0,0v100h100V0L50,28.125L0,0z"/>
</g>
</g></g><g transform="translate(610,1403) scale(0.61,0.61)"><g transform="" style="fill: rgb(255, 255, 255);">
<rect width="100" height="100"/>
</g></g><g transform="translate(732,1403) scale(0.61,0.61)"><g transform="" style="fill: rgb(255, 255, 255);">
<rect width="100" height="100"/>
</g></g><g transform="translate(793,1403) scale(0.61,0.61)"><g transform="" style="fill: rgb(255, 255, 255);">
<g>
	<path d="M100,34.375c0-9.505-3.354-17.611-10.059-24.316S75.131,0,65.625,0H0v100h100V34.375z"/>
</g>
</g></g><g transform="translate(1037,1403) scale(0.61,0.61)"><g transform="" style="fill: rgb(255, 255, 255);">
<g>
	<path d="M100,34.375V0H34.375C24.87,0,16.764,3.353,10.059,10.059S0,24.87,0,34.375V100h100V34.375z"/>
</g>
</g></g><g transform="translate(1098,1403) scale(0.61,0.61)"><g transform="" style="fill: rgb(255, 255, 255);">
<rect width="100" height="100"/>
</g></g><g transform="translate(1159,1403) scale(0.61,0.61)"><g transform="" style="fill: rgb(255, 255, 255);">
<rect width="100" height="100"/>
</g></g><g transform="translate(1220,1403) scale(0.61,0.61)"><g transform="" style="fill: rgb(255, 255, 255);">
<rect width="100" height="100"/>
</g></g><g transform="translate(1281,1403) scale(0.61,0.61)"><g transform="" style="fill: rgb(255, 255, 255);">
<rect width="100" height="100"/>
</g></g><g transform="translate(1342,1403) scale(0.61,0.61)"><g transform="" style="fill: rgb(255, 255, 255);">
<rect width="100" height="100"/>
</g></g><g transform="translate(1403,1403) scale(0.61,0.61)"><g transform="" style="fill: rgb(255, 255, 255);">
<rect width="100" height="100"/>
</g></g><g transform="translate(1464,1403) scale(0.61,0.61)"><g transform="" style="fill: rgb(255, 255, 255);">
<rect width="100" height="100"/>
</g></g><g transform="translate(1525,1403) scale(0.61,0.61)"><g transform="" style="fill: rgb(255, 255, 255);">
<rect width="100" height="100"/>
</g></g><g transform="translate(1586,1403) scale(0.61,0.61)"><g transform="" style="fill: rgb(255, 255, 255);">
<g>
	<path d="M100,34.375c0-9.505-3.354-17.611-10.059-24.316S75.131,0,65.625,0H0v100h100V34.375z"/>
</g>
</g></g><g transform="translate(1891,1403) scale(0.61,0.61)"><g transform="" style="fill: rgb(255, 255, 255);">
<g>
	<path d="M100,100V0H0v100l50-28.125L100,100z"/>
</g>
</g></g><g transform="translate(0,1464) scale(0.61,0.61)"><g transform="" style="fill: rgb(255, 255, 255);">
<g>
	<path d="M0,100h100V0H0l28.125,50L0,100z"/>
</g>
</g></g><g transform="translate(61,1464) scale(0.61,0.61)"><g transform="" style="fill: rgb(255, 255, 255);">
<g>
	<path d="M100,0H0v100h100L71.875,50L100,0z"/>
</g>
</g></g><g transform="translate(366,1464) scale(0.61,0.61)"><g transform="" style="fill: rgb(255, 255, 255);">
<g>
	<path d="M0,100h100V0H0l28.125,50L0,100z"/>
</g>
</g></g><g transform="translate(427,1464) scale(0.61,0.61)"><g transform="" style="fill: rgb(255, 255, 255);">
<rect width="100" height="100"/>
</g></g><g transform="translate(488,1464) scale(0.61,0.61)"><g transform="" style="fill: rgb(255, 255, 255);">
<g>
	<path d="M100,34.375c0-9.505-3.354-17.611-10.059-24.316S75.131,0,65.625,0H0v100h100V34.375z"/>
</g>
</g></g><g transform="translate(610,1464) scale(0.61,0.61)"><g transform="" style="fill: rgb(255, 255, 255);">
<g>
	<path d="M100,100V0H0v100l50-28.125L100,100z"/>
</g>
</g></g><g transform="translate(732,1464) scale(0.61,0.61)"><g transform="" style="fill: rgb(255, 255, 255);">
<g>
	<path d="M100,0H0v65.625c0,9.506,3.353,17.611,10.059,24.316S24.87,100,34.375,100H100V0z"/>
</g>
</g></g><g transform="translate(793,1464) scale(0.61,0.61)"><g transform="" style="fill: rgb(255, 255, 255);">
<rect width="100" height="100"/>
</g></g><g transform="translate(854,1464) scale(0.61,0.61)"><g transform="" style="fill: rgb(255, 255, 255);">
<rect width="100" height="100"/>
</g></g><g transform="translate(915,1464) scale(0.61,0.61)"><g transform="" style="fill: rgb(255, 255, 255);">
<rect width="100" height="100"/>
</g></g><g transform="translate(976,1464) scale(0.61,0.61)"><g transform="" style="fill: rgb(255, 255, 255);">
<rect width="100" height="100"/>
</g></g><g transform="translate(1037,1464) scale(0.61,0.61)"><g transform="" style="fill: rgb(255, 255, 255);">
<rect width="100" height="100"/>
</g></g><g transform="translate(1281,1464) scale(0.61,0.61)"><g transform="" style="fill: rgb(255, 255, 255);">
<rect width="100" height="100"/>
</g></g><g transform="translate(1342,1464) scale(0.61,0.61)"><g transform="" style="fill: rgb(255, 255, 255);">
<g>
	<path d="M100,0H0v100h65.625c9.506,0,17.611-3.354,24.316-10.059S100,75.131,100,65.625V0z"/>
</g>
</g></g><g transform="translate(1464,1464) scale(0.61,0.61)"><g transform="" style="fill: rgb(255, 255, 255);">
<rect width="100" height="100"/>
</g></g><g transform="translate(1525,1464) scale(0.61,0.61)"><g transform="" style="fill: rgb(255, 255, 255);">
<rect width="100" height="100"/>
</g></g><g transform="translate(1586,1464) scale(0.61,0.61)"><g transform="" style="fill: rgb(255, 255, 255);">
<rect width="100" height="100"/>
</g></g><g transform="translate(1647,1464) scale(0.61,0.61)"><g transform="" style="fill: rgb(255, 255, 255);">
<rect width="100" height="100"/>
</g></g><g transform="translate(1708,1464) scale(0.61,0.61)"><g transform="" style="fill: rgb(255, 255, 255);">
<g>
	<path d="M100,34.375c0-9.505-3.354-17.611-10.059-24.316S75.131,0,65.625,0H0v100h100V34.375z"/>
</g>
</g></g><g transform="translate(488,1525) scale(0.61,0.61)"><g transform="" style="fill: rgb(255, 255, 255);">
<rect width="100" height="100"/>
</g></g><g transform="translate(549,1525) scale(0.61,0.61)"><g transform="" style="fill: rgb(255, 255, 255);">
<g>
	<path d="M100,34.375c0-9.505-3.354-17.611-10.059-24.316S75.131,0,65.625,0H0v100h100V34.375z"/>
</g>
</g></g><g transform="translate(854,1525) scale(0.61,0.61)"><g transform="" style="fill: rgb(255, 255, 255);">
<rect width="100" height="100"/>
</g></g><g transform="translate(915,1525) scale(0.61,0.61)"><g transform="" style="fill: rgb(255, 255, 255);">
<rect width="100" height="100"/>
</g></g><g transform="translate(976,1525) scale(0.61,0.61)"><g transform="" style="fill: rgb(255, 255, 255);">
<rect width="100" height="100"/>
</g></g><g transform="translate(1037,1525) scale(0.61,0.61)"><g transform="" style="fill: rgb(255, 255, 255);">
<rect width="100" height="100"/>
</g></g><g transform="translate(1098,1525) scale(0.61,0.61)"><g transform="" style="fill: rgb(255, 255, 255);">
<g>
	<path d="M100,34.375c0-9.505-3.354-17.611-10.059-24.316S75.131,0,65.625,0H0v100h100V34.375z"/>
</g>
</g></g><g transform="translate(1281,1525) scale(0.61,0.61)"><g transform="" style="fill: rgb(255, 255, 255);">
<g>
	<path d="M100,100V0H0v100l50-28.125L100,100z"/>
</g>
</g></g><g transform="translate(1403,1525) scale(0.61,0.61)"><g transform="" style="fill: rgb(255, 255, 255);">
<g>
	<path d="M0,100h100V0H0l28.125,50L0,100z"/>
</g>
</g></g><g transform="translate(1464,1525) scale(0.61,0.61)"><g transform="" style="fill: rgb(255, 255, 255);">
<rect width="100" height="100"/>
</g></g><g transform="translate(1708,1525) scale(0.61,0.61)"><g transform="" style="fill: rgb(255, 255, 255);">
<rect width="100" height="100"/>
</g></g><g transform="translate(1830,1525) scale(0.61,0.61)"><g transform="" style="fill: rgb(255, 255, 255);">
<g>
	<path d="M0,100h100V0H0l28.125,50L0,100z"/>
</g>
</g></g><g transform="translate(1891,1525) scale(0.61,0.61)"><g transform="" style="fill: rgb(255, 255, 255);">
<g>
	<path d="M100,34.375c0-9.505-3.354-17.611-10.059-24.316S75.131,0,65.625,0H0v100h100V34.375z"/>
</g>
</g></g><g transform="translate(488,1586) scale(0.61,0.61)"><g transform="" style="fill: rgb(255, 255, 255);">
<g>
	<path d="M100,0H0v65.625c0,9.506,3.353,17.611,10.059,24.316S24.87,100,34.375,100H100V0z"/>
</g>
</g></g><g transform="translate(549,1586) scale(0.61,0.61)"><g transform="" style="fill: rgb(255, 255, 255);">
<rect width="100" height="100"/>
</g></g><g transform="translate(610,1586) scale(0.61,0.61)"><g transform="" style="fill: rgb(255, 255, 255);">
<g>
	<path d="M100,0H0v100h100L71.875,50L100,0z"/>
</g>
</g></g><g transform="translate(732,1586) scale(0.61,0.61)"><g transform="" style="fill: rgb(255, 255, 255);">
<g>
	<path d="M0,0v100h100V0L50,28.125L0,0z"/>
</g>
</g></g><g transform="translate(854,1586) scale(0.61,0.61)"><g transform="" style="fill: rgb(255, 255, 255);">
<rect width="100" height="100"/>
</g></g><g transform="translate(915,1586) scale(0.61,0.61)"><g transform="" style="fill: rgb(255, 255, 255);">
<g>
	<path d="M100,0H0v100h65.625c9.506,0,17.611-3.354,24.316-10.059S100,75.131,100,65.625V0z"/>
</g>
</g></g><g transform="translate(1098,1586) scale(0.61,0.61)"><g transform="" style="fill: rgb(255, 255, 255);">
<g>
	<path d="M100,100V0H0v100l50-28.125L100,100z"/>
</g>
</g></g><g transform="translate(1220,1586) scale(0.61,0.61)"><g transform="" style="fill: rgb(255, 255, 255);">
<g>
	<path d="M0,0v100h100V0L50,28.125L0,0z"/>
</g>
</g></g><g transform="translate(1464,1586) scale(0.61,0.61)"><g transform="" style="fill: rgb(255, 255, 255);">
<rect width="100" height="100"/>
</g></g><g transform="translate(1586,1586) scale(0.61,0.61)"><g transform="" style="fill: rgb(255, 255, 255);">
<g>
	<path d="M95,64.062c0,8.556-3.019,15.851-9.053,21.885S72.618,95,64.062,95H35.938c-8.554,0-15.85-3.019-21.884-9.053
		S5,72.618,5,64.062V35.938c0-8.554,3.018-15.85,9.053-21.884S27.383,5,35.938,5h28.125c8.556,0,15.851,3.018,21.885,9.053
		S95,27.383,95,35.938V64.062z"/>
</g>
</g></g><g transform="translate(1708,1586) scale(0.61,0.61)"><g transform="" style="fill: rgb(255, 255, 255);">
<rect width="100" height="100"/>
</g></g><g transform="translate(1769,1586) scale(0.61,0.61)"><g transform="" style="fill: rgb(255, 255, 255);">
<g>
	<path d="M100,0H0v100h100L71.875,50L100,0z"/>
</g>
</g></g><g transform="translate(1891,1586) scale(0.61,0.61)"><g transform="" style="fill: rgb(255, 255, 255);">
<g>
	<path d="M100,100V0H0v100l50-28.125L100,100z"/>
</g>
</g></g><g transform="translate(549,1647) scale(0.61,0.61)"><g transform="" style="fill: rgb(255, 255, 255);">
<rect width="100" height="100"/>
</g></g><g transform="translate(671,1647) scale(0.61,0.61)"><g transform="" style="fill: rgb(255, 255, 255);">
<g>
	<path d="M100,34.375V0H34.375C24.87,0,16.764,3.353,10.059,10.059S0,24.87,0,34.375V100h100V34.375z"/>
</g>
</g></g><g transform="translate(732,1647) scale(0.61,0.61)"><g transform="" style="fill: rgb(255, 255, 255);">
<g>
	<path d="M100,0H0v100h65.625c9.506,0,17.611-3.354,24.316-10.059S100,75.131,100,65.625V0z"/>
</g>
</g></g><g transform="translate(854,1647) scale(0.61,0.61)"><g transform="" style="fill: rgb(255, 255, 255);">
<rect width="100" height="100"/>
</g></g><g transform="translate(1159,1647) scale(0.61,0.61)"><g transform="" style="fill: rgb(255, 255, 255);">
<g>
	<path d="M100,34.375V0H34.375C24.87,0,16.764,3.353,10.059,10.059S0,24.87,0,34.375V100h100V34.375z"/>
</g>
</g></g><g transform="translate(1220,1647) scale(0.61,0.61)"><g transform="" style="fill: rgb(255, 255, 255);">
<g>
	<path d="M100,0H0v100h65.625c9.506,0,17.611-3.354,24.316-10.059S100,75.131,100,65.625V0z"/>
</g>
</g></g><g transform="translate(1342,1647) scale(0.61,0.61)"><g transform="" style="fill: rgb(255, 255, 255);">
<g>
	<path d="M0,0v100h100V0L50,28.125L0,0z"/>
</g>
</g></g><g transform="translate(1464,1647) scale(0.61,0.61)"><g transform="" style="fill: rgb(255, 255, 255);">
<rect width="100" height="100"/>
</g></g><g transform="translate(1708,1647) scale(0.61,0.61)"><g transform="" style="fill: rgb(255, 255, 255);">
<rect width="100" height="100"/>
</g></g><g transform="translate(1952,1647) scale(0.61,0.61)"><g transform="" style="fill: rgb(255, 255, 255);">
<g>
	<path d="M0,0v100h100V0L50,28.125L0,0z"/>
</g>
</g></g><g transform="translate(488,1708) scale(0.61,0.61)"><g transform="" style="fill: rgb(255, 255, 255);">
<g>
	<path d="M0,100h100V0H0l28.125,50L0,100z"/>
</g>
</g></g><g transform="translate(549,1708) scale(0.61,0.61)"><g transform="" style="fill: rgb(255, 255, 255);">
<rect width="100" height="100"/>
</g></g><g transform="translate(610,1708) scale(0.61,0.61)"><g transform="" style="fill: rgb(255, 255, 255);">
<rect width="100" height="100"/>
</g></g><g transform="translate(671,1708) scale(0.61,0.61)"><g transform="" style="fill: rgb(255, 255, 255);">
<g>
	<path d="M100,0H0v100h65.625c9.506,0,17.611-3.354,24.316-10.059S100,75.131,100,65.625V0z"/>
</g>
</g></g><g transform="translate(793,1708) scale(0.61,0.61)"><g transform="" style="fill: rgb(255, 255, 255);">
<g>
	<path d="M0,100h100V0H0l28.125,50L0,100z"/>
</g>
</g></g><g transform="translate(854,1708) scale(0.61,0.61)"><g transform="" style="fill: rgb(255, 255, 255);">
<rect width="100" height="100"/>
</g></g><g transform="translate(915,1708) scale(0.61,0.61)"><g transform="" style="fill: rgb(255, 255, 255);">
<rect width="100" height="100"/>
</g></g><g transform="translate(976,1708) scale(0.61,0.61)"><g transform="" style="fill: rgb(255, 255, 255);">
<g>
	<path d="M100,0H0v100h100L71.875,50L100,0z"/>
</g>
</g></g><g transform="translate(1159,1708) scale(0.61,0.61)"><g transform="" style="fill: rgb(255, 255, 255);">
<rect width="100" height="100"/>
</g></g><g transform="translate(1342,1708) scale(0.61,0.61)"><g transform="" style="fill: rgb(255, 255, 255);">
<g>
	<path d="M100,100V0H0v100l50-28.125L100,100z"/>
</g>
</g></g><g transform="translate(1464,1708) scale(0.61,0.61)"><g transform="" style="fill: rgb(255, 255, 255);">
<g>
	<path d="M100,0H0v65.625c0,9.506,3.353,17.611,10.059,24.316S24.87,100,34.375,100H100V0z"/>
</g>
</g></g><g transform="translate(1525,1708) scale(0.61,0.61)"><g transform="" style="fill: rgb(255, 255, 255);">
<rect width="100" height="100"/>
</g></g><g transform="translate(1586,1708) scale(0.61,0.61)"><g transform="" style="fill: rgb(255, 255, 255);">
<rect width="100" height="100"/>
</g></g><g transform="translate(1647,1708) scale(0.61,0.61)"><g transform="" style="fill: rgb(255, 255, 255);">
<rect width="100" height="100"/>
</g></g><g transform="translate(1708,1708) scale(0.61,0.61)"><g transform="" style="fill: rgb(255, 255, 255);">
<rect width="100" height="100"/>
</g></g><g transform="translate(1769,1708) scale(0.61,0.61)"><g transform="" style="fill: rgb(255, 255, 255);">
<g>
	<path d="M100,34.375c0-9.505-3.354-17.611-10.059-24.316S75.131,0,65.625,0H0v100h100V34.375z"/>
</g>
</g></g><g transform="translate(1891,1708) scale(0.61,0.61)"><g transform="" style="fill: rgb(255, 255, 255);">
<g>
	<path d="M100,34.375V0H34.375C24.87,0,16.764,3.353,10.059,10.059S0,24.87,0,34.375V100h100V34.375z"/>
</g>
</g></g><g transform="translate(1952,1708) scale(0.61,0.61)"><g transform="" style="fill: rgb(255, 255, 255);">
<g>
	<path d="M100,0H0v100h65.625c9.506,0,17.611-3.354,24.316-10.059S100,75.131,100,65.625V0z"/>
</g>
</g></g><g transform="translate(549,1769) scale(0.61,0.61)"><g transform="" style="fill: rgb(255, 255, 255);">
<rect width="100" height="100"/>
</g></g><g transform="translate(732,1769) scale(0.61,0.61)"><g transform="" style="fill: rgb(255, 255, 255);">
<g>
	<path d="M95,64.062c0,8.556-3.019,15.851-9.053,21.885S72.618,95,64.062,95H35.938c-8.554,0-15.85-3.019-21.884-9.053
		S5,72.618,5,64.062V35.938c0-8.554,3.018-15.85,9.053-21.884S27.383,5,35.938,5h28.125c8.556,0,15.851,3.018,21.885,9.053
		S95,27.383,95,35.938V64.062z"/>
</g>
</g></g><g transform="translate(854,1769) scale(0.61,0.61)"><g transform="" style="fill: rgb(255, 255, 255);">
<rect width="100" height="100"/>
</g></g><g transform="translate(1037,1769) scale(0.61,0.61)"><g transform="" style="fill: rgb(255, 255, 255);">
<g>
	<path d="M100,34.375V0H34.375C24.87,0,16.764,3.353,10.059,10.059S0,24.87,0,34.375V100h100V34.375z"/>
</g>
</g></g><g transform="translate(1098,1769) scale(0.61,0.61)"><g transform="" style="fill: rgb(255, 255, 255);">
<rect width="100" height="100"/>
</g></g><g transform="translate(1159,1769) scale(0.61,0.61)"><g transform="" style="fill: rgb(255, 255, 255);">
<rect width="100" height="100"/>
</g></g><g transform="translate(1220,1769) scale(0.61,0.61)"><g transform="" style="fill: rgb(255, 255, 255);">
<g>
	<path d="M100,34.375c0-9.505-3.354-17.611-10.059-24.316S75.131,0,65.625,0H0v100h100V34.375z"/>
</g>
</g></g><g transform="translate(1403,1769) scale(0.61,0.61)"><g transform="" style="fill: rgb(255, 255, 255);">
<g>
	<path d="M95,64.062c0,8.556-3.019,15.851-9.053,21.885S72.618,95,64.062,95H35.938c-8.554,0-15.85-3.019-21.884-9.053
		S5,72.618,5,64.062V35.938c0-8.554,3.018-15.85,9.053-21.884S27.383,5,35.938,5h28.125c8.556,0,15.851,3.018,21.885,9.053
		S95,27.383,95,35.938V64.062z"/>
</g>
</g></g><g transform="translate(1586,1769) scale(0.61,0.61)"><g transform="" style="fill: rgb(255, 255, 255);">
<rect width="100" height="100"/>
</g></g><g transform="translate(1647,1769) scale(0.61,0.61)"><g transform="" style="fill: rgb(255, 255, 255);">
<rect width="100" height="100"/>
</g></g><g transform="translate(1708,1769) scale(0.61,0.61)"><g transform="" style="fill: rgb(255, 255, 255);">
<rect width="100" height="100"/>
</g></g><g transform="translate(1769,1769) scale(0.61,0.61)"><g transform="" style="fill: rgb(255, 255, 255);">
<rect width="100" height="100"/>
</g></g><g transform="translate(1891,1769) scale(0.61,0.61)"><g transform="" style="fill: rgb(255, 255, 255);">
<g>
	<path d="M100,100V0H0v100l50-28.125L100,100z"/>
</g>
</g></g><g transform="translate(549,1830) scale(0.61,0.61)"><g transform="" style="fill: rgb(255, 255, 255);">
<g>
	<path d="M100,100V0H0v100l50-28.125L100,100z"/>
</g>
</g></g><g transform="translate(854,1830) scale(0.61,0.61)"><g transform="" style="fill: rgb(255, 255, 255);">
<rect width="100" height="100"/>
</g></g><g transform="translate(915,1830) scale(0.61,0.61)"><g transform="" style="fill: rgb(255, 255, 255);">
<g>
	<path d="M100,34.375c0-9.505-3.354-17.611-10.059-24.316S75.131,0,65.625,0H0v100h100V34.375z"/>
</g>
</g></g><g transform="translate(1037,1830) scale(0.61,0.61)"><g transform="" style="fill: rgb(255, 255, 255);">
<rect width="100" height="100"/>
</g></g><g transform="translate(1098,1830) scale(0.61,0.61)"><g transform="" style="fill: rgb(255, 255, 255);">
<rect width="100" height="100"/>
</g></g><g transform="translate(1220,1830) scale(0.61,0.61)"><g transform="" style="fill: rgb(255, 255, 255);">
<g>
	<path d="M100,0H0v65.625c0,9.506,3.353,17.611,10.059,24.316S24.87,100,34.375,100H100V0z"/>
</g>
</g></g><g transform="translate(1281,1830) scale(0.61,0.61)"><g transform="" style="fill: rgb(255, 255, 255);">
<rect width="100" height="100"/>
</g></g><g transform="translate(1342,1830) scale(0.61,0.61)"><g transform="" style="fill: rgb(255, 255, 255);">
<g>
	<path d="M100,0H0v100h100L71.875,50L100,0z"/>
</g>
</g></g><g transform="translate(1525,1830) scale(0.61,0.61)"><g transform="" style="fill: rgb(255, 255, 255);">
<g>
	<path d="M100,34.375V0H34.375C24.87,0,16.764,3.353,10.059,10.059S0,24.87,0,34.375V100h100V34.375z"/>
</g>
</g></g><g transform="translate(1586,1830) scale(0.61,0.61)"><g transform="" style="fill: rgb(255, 255, 255);">
<rect width="100" height="100"/>
</g></g><g transform="translate(1647,1830) scale(0.61,0.61)"><g transform="" style="fill: rgb(255, 255, 255);">
<rect width="100" height="100"/>
</g></g><g transform="translate(1708,1830) scale(0.61,0.61)"><g transform="" style="fill: rgb(255, 255, 255);">
<rect width="100" height="100"/>
</g></g><g transform="translate(1769,1830) scale(0.61,0.61)"><g transform="" style="fill: rgb(255, 255, 255);">
<rect width="100" height="100"/>
</g></g><g transform="translate(1830,1830) scale(0.61,0.61)"><g transform="" style="fill: rgb(255, 255, 255);">
<g>
	<path d="M100,0H0v100h100L71.875,50L100,0z"/>
</g>
</g></g><g transform="translate(610,1891) scale(0.61,0.61)"><g transform="" style="fill: rgb(255, 255, 255);">
<g>
	<path d="M100,34.375V0H34.375C24.87,0,16.764,3.353,10.059,10.059S0,24.87,0,34.375V100h100V34.375z"/>
</g>
</g></g><g transform="translate(671,1891) scale(0.61,0.61)"><g transform="" style="fill: rgb(255, 255, 255);">
<g>
	<path d="M100,0H0v100h100L71.875,50L100,0z"/>
</g>
</g></g><g transform="translate(793,1891) scale(0.61,0.61)"><g transform="" style="fill: rgb(255, 255, 255);">
<g>
	<path d="M100,34.375V0H34.375C24.87,0,16.764,3.353,10.059,10.059S0,24.87,0,34.375V100h100V34.375z"/>
</g>
</g></g><g transform="translate(854,1891) scale(0.61,0.61)"><g transform="" style="fill: rgb(255, 255, 255);">
<rect width="100" height="100"/>
</g></g><g transform="translate(915,1891) scale(0.61,0.61)"><g transform="" style="fill: rgb(255, 255, 255);">
<rect width="100" height="100"/>
</g></g><g transform="translate(976,1891) scale(0.61,0.61)"><g transform="" style="fill: rgb(255, 255, 255);">
<rect width="100" height="100"/>
</g></g><g transform="translate(1037,1891) scale(0.61,0.61)"><g transform="" style="fill: rgb(255, 255, 255);">
<rect width="100" height="100"/>
</g></g><g transform="translate(1098,1891) scale(0.61,0.61)"><g transform="" style="fill: rgb(255, 255, 255);">
<rect width="100" height="100"/>
</g></g><g transform="translate(1281,1891) scale(0.61,0.61)"><g transform="" style="fill: rgb(255, 255, 255);">
<rect width="100" height="100"/>
</g></g><g transform="translate(1403,1891) scale(0.61,0.61)"><g transform="" style="fill: rgb(255, 255, 255);">
<g>
	<path d="M100,34.375V0H34.375C24.87,0,16.764,3.353,10.059,10.059S0,24.87,0,34.375V100h100V34.375z"/>
</g>
</g></g><g transform="translate(1464,1891) scale(0.61,0.61)"><g transform="" style="fill: rgb(255, 255, 255);">
<rect width="100" height="100"/>
</g></g><g transform="translate(1525,1891) scale(0.61,0.61)"><g transform="" style="fill: rgb(255, 255, 255);">
<rect width="100" height="100"/>
</g></g><g transform="translate(1586,1891) scale(0.61,0.61)"><g transform="" style="fill: rgb(255, 255, 255);">
<g>
	<path d="M100,0H0v100h65.625c9.506,0,17.611-3.354,24.316-10.059S100,75.131,100,65.625V0z"/>
</g>
</g></g><g transform="translate(488,1952) scale(0.61,0.61)"><g transform="" style="fill: rgb(255, 255, 255);">
<g>
	<path d="M95,64.062c0,8.556-3.019,15.851-9.053,21.885S72.618,95,64.062,95H35.938c-8.554,0-15.85-3.019-21.884-9.053
		S5,72.618,5,64.062V35.938c0-8.554,3.018-15.85,9.053-21.884S27.383,5,35.938,5h28.125c8.556,0,15.851,3.018,21.885,9.053
		S95,27.383,95,35.938V64.062z"/>
</g>
</g></g><g transform="translate(610,1952) scale(0.61,0.61)"><g transform="" style="fill: rgb(255, 255, 255);">
<g>
	<path d="M100,100V0H0v100l50-28.125L100,100z"/>
</g>
</g></g><g transform="translate(793,1952) scale(0.61,0.61)"><g transform="" style="fill: rgb(255, 255, 255);">
<g>
	<path d="M100,100V0H0v100l50-28.125L100,100z"/>
</g>
</g></g><g transform="translate(1037,1952) scale(0.61,0.61)"><g transform="" style="fill: rgb(255, 255, 255);">
<g>
	<path d="M100,0H0v65.625c0,9.506,3.353,17.611,10.059,24.316S24.87,100,34.375,100H100V0z"/>
</g>
</g></g><g transform="translate(1098,1952) scale(0.61,0.61)"><g transform="" style="fill: rgb(255, 255, 255);">
<rect width="100" height="100"/>
</g></g><g transform="translate(1159,1952) scale(0.61,0.61)"><g transform="" style="fill: rgb(255, 255, 255);">
<rect width="100" height="100"/>
</g></g><g transform="translate(1220,1952) scale(0.61,0.61)"><g transform="" style="fill: rgb(255, 255, 255);">
<rect width="100" height="100"/>
</g></g><g transform="translate(1281,1952) scale(0.61,0.61)"><g transform="" style="fill: rgb(255, 255, 255);">
<rect width="100" height="100"/>
</g></g><g transform="translate(1342,1952) scale(0.61,0.61)"><g transform="" style="fill: rgb(255, 255, 255);">
<rect width="100" height="100"/>
</g></g><g transform="translate(1403,1952) scale(0.61,0.61)"><g transform="" style="fill: rgb(255, 255, 255);">
<rect width="100" height="100"/>
</g></g><g transform="translate(1464,1952) scale(0.61,0.61)"><g transform="" style="fill: rgb(255, 255, 255);">
<rect width="100" height="100"/>
</g></g><g transform="translate(1525,1952) scale(0.61,0.61)"><g transform="" style="fill: rgb(255, 255, 255);">
<g>
	<path d="M100,0H0v100h65.625c9.506,0,17.611-3.354,24.316-10.059S100,75.131,100,65.625V0z"/>
</g>
</g></g><g transform="translate(1952,1952) scale(0.61,0.61)"><g transform="" style="fill: rgb(255, 255, 255);">
<g>
	<path d="M95,64.062c0,8.556-3.019,15.851-9.053,21.885S72.618,95,64.062,95H35.938c-8.554,0-15.85-3.019-21.884-9.053
		S5,72.618,5,64.062V35.938c0-8.554,3.018-15.85,9.053-21.884S27.383,5,35.938,5h28.125c8.556,0,15.851,3.018,21.885,9.053
		S95,27.383,95,35.938V64.062z"/>
</g>
</g></g><g transform="translate(0,0) scale(4.1862745098039, 4.1862745098039)"><g transform="" style="fill: rgb(255, 255, 255);">
<g>
	<path style="fill:none;" d="M51,16c-19.299,0-35,15.701-35,35s15.701,35,35,35s35-15.701,35-35S70.299,16,51,16z"/>
	<path d="M51,1C23.387,1,1,23.387,1,51s22.387,50,50,50s50-22.387,50-50S78.613,1,51,1z M51,86c-19.299,0-35-15.701-35-35
		s15.701-35,35-35s35,15.701,35,35S70.299,86,51,86z"/>
</g>
</g></g><g transform="translate(1586,0) scale(4.1862745098039, 4.1862745098039)"><g transform="" style="fill: rgb(255, 255, 255);">
<g>
	<path style="fill:none;" d="M51,16c-19.299,0-35,15.701-35,35s15.701,35,35,35s35-15.701,35-35S70.299,16,51,16z"/>
	<path d="M51,1C23.387,1,1,23.387,1,51s22.387,50,50,50s50-22.387,50-50S78.613,1,51,1z M51,86c-19.299,0-35-15.701-35-35
		s15.701-35,35-35s35,15.701,35,35S70.299,86,51,86z"/>
</g>
</g></g><g transform="translate(0,1586) scale(4.1862745098039, 4.1862745098039)"><g transform="" style="fill: rgb(255, 255, 255);">
<g>
	<path style="fill:none;" d="M51,16c-19.299,0-35,15.701-35,35s15.701,35,35,35s35-15.701,35-35S70.299,16,51,16z"/>
	<path d="M51,1C23.387,1,1,23.387,1,51s22.387,50,50,50s50-22.387,50-50S78.613,1,51,1z M51,86c-19.299,0-35-15.701-35-35
		s15.701-35,35-35s35,15.701,35,35S70.299,86,51,86z"/>
</g>
</g></g><g transform="translate(122,122) scale(1.83, 1.83)"><g transform="" style="fill: rgb(255, 255, 255);">
<g>
	<path d="M99,16.68c0,8.659-6.619,15.68-14.782,15.68H15.781C7.618,32.36,1,25.339,1,16.68l0,0C1,8.021,7.618,1,15.781,1h68.437
		C92.381,1,99,8.021,99,16.68L99,16.68z"/>
	<path d="M99,83.32C99,91.98,92.381,99,84.218,99H15.781C7.618,99,1,91.98,1,83.32l0,0C1,74.66,7.618,67.64,15.781,67.64h68.437
		C92.381,67.64,99,74.66,99,83.32L99,83.32z"/>
	<path d="M99,50c0,8.66-6.619,15.68-14.782,15.68H15.781C7.618,65.68,1,58.66,1,50l0,0c0-8.661,6.618-15.68,14.781-15.68h68.437
		C92.381,34.32,99,41.339,99,50L99,50z"/>
</g>
</g></g><g transform="translate(1708,122) scale(1.83, 1.83)"><g transform="" style="fill: rgb(255, 255, 255);">
<g>
	<path d="M99,16.68c0,8.659-6.619,15.68-14.782,15.68H15.781C7.618,32.36,1,25.339,1,16.68l0,0C1,8.021,7.618,1,15.781,1h68.437
		C92.381,1,99,8.021,99,16.68L99,16.68z"/>
	<path d="M99,83.32C99,91.98,92.381,99,84.218,99H15.781C7.618,99,1,91.98,1,83.32l0,0C1,74.66,7.618,67.64,15.781,67.64h68.437
		C92.381,67.64,99,74.66,99,83.32L99,83.32z"/>
	<path d="M99,50c0,8.66-6.619,15.68-14.782,15.68H15.781C7.618,65.68,1,58.66,1,50l0,0c0-8.661,6.618-15.68,14.781-15.68h68.437
		C92.381,34.32,99,41.339,99,50L99,50z"/>
</g>
</g></g><g transform="translate(122,1708) scale(1.83, 1.83)"><g transform="" style="fill: rgb(255, 255, 255);">
<g>
	<path d="M99,16.68c0,8.659-6.619,15.68-14.782,15.68H15.781C7.618,32.36,1,25.339,1,16.68l0,0C1,8.021,7.618,1,15.781,1h68.437
		C92.381,1,99,8.021,99,16.68L99,16.68z"/>
	<path d="M99,83.32C99,91.98,92.381,99,84.218,99H15.781C7.618,99,1,91.98,1,83.32l0,0C1,74.66,7.618,67.64,15.781,67.64h68.437
		C92.381,67.64,99,74.66,99,83.32L99,83.32z"/>
	<path d="M99,50c0,8.66-6.619,15.68-14.782,15.68H15.781C7.618,65.68,1,58.66,1,50l0,0c0-8.661,6.618-15.68,14.781-15.68h68.437
		C92.381,34.32,99,41.339,99,50L99,50z"/>
</g>
</g></g></g></mask></defs></g><rect x="0" y="0" width="2013" height="2013" fill="url(#grad)" mask="url(#gmask)" /></g></svg>